<?xml version="1.0" encoding="UTF-8"?>
<svg xmlns="http://www.w3.org/2000/svg" xmlns:xlink="http://www.w3.org/1999/xlink" viewBox="0 0 2036.86 626.82">
  <defs>
    <style>
      .cls-1, .cls-2, .cls-3 {
        fill: none;
      }

      .cls-4 {
        fill: #ffc017;
      }

      .cls-5, .cls-6 {
        fill: #23232d;
      }

      .cls-7 {
        fill: #dec0f1;
      }

      .cls-8 {
        fill: #c19c00;
      }

      .cls-9 {
        fill: #b79cb0;
        opacity: .11;
      }

      .cls-10 {
        fill: #ff8047;
      }

      .cls-10, .cls-11, .cls-6, .cls-12, .cls-13, .cls-14, .cls-15 {
        mix-blend-mode: multiply;
      }

      .cls-10, .cls-6, .cls-12, .cls-15 {
        opacity: .7;
      }

      .cls-16 {
        isolation: isolate;
      }

      .cls-17 {
        clip-path: url(#clippath-1);
      }

      .cls-12, .cls-18, .cls-19 {
        fill: #bd9a7a;
      }

      .cls-20 {
        fill: #ffe471;
      }

      .cls-21, .cls-14 {
        fill: #ffd300;
      }

      .cls-13 {
        fill: #631839;
      }

      .cls-13, .cls-14 {
        opacity: .3;
      }

      .cls-22, .cls-15 {
        fill: #ff6f5b;
      }

      .cls-2 {
        stroke: #dec0f1;
        stroke-width: .91px;
      }

      .cls-2, .cls-3 {
        stroke-linecap: round;
        stroke-miterlimit: 10;
      }

      .cls-3 {
        stroke: #fff;
        stroke-width: 2px;
      }

      .cls-19 {
        mix-blend-mode: overlay;
      }

      .cls-23 {
        clip-path: url(#clippath);
      }

      .cls-24 {
        fill: #cac9ff;
      }
    </style>
    <clipPath id="clippath">
      <path class="cls-1" d="M892.01,307.26c4.93-2.63,10.38-4.5,16.01-5.54,1.6-.29,3.22-.47,4.82-.72l2.2-4.65c1.16-2.57,2.27-5.17,3.33-7.78.44-1.11.9-2.31.6-3.47-.23-.94-.91-1.69-1.57-2.39-2.64-2.84-5.3-5.67-7.94-8.5,2.5-7.4,5.01-14.81,7.5-22.2-3.76-1.92-7.52-3.83-11.29-5.75-3.53,2.57-7.06,5.14-10.6,7.71-.63-.87-1.25-1.73-1.87-2.6,4.83-5.14,9.66-10.27,14.49-15.4,6.46,4.72,16.05,5.02,20.7,11.51,4.33,6.07,2.35,14.98,6.48,21.18,1.86,2.79,4.74,4.69,7.55,6.51,2.42,1.57,5.67,3.01,7.72,5.02.29.3.51.51.71.88.55.96.84,2.27,1.25,3.31.34.84.68,1.69,1.01,2.53.77,2,1.5,4.02,2.2,6.05.1.31.21.63.32.94.7,2.12,1.35,4.25,1.96,6.39,5.99.87,11.9,2.17,17.56,4.07,1.89.64,4.04,1.66,4.2,3.43.18,1.87-1.99,3.24-3.93,4.07-8.92,3.8-18.93,5.15-28.8,5.79-17.46,1.14-35.06.25-52.21-2.64-2.62-.44-5.83-1.53-5.86-3.86-.02-1.71,1.78-2.97,3.46-3.87Z"/>
    </clipPath>
    <clipPath id="clippath-1">
      <path class="cls-1" d="M289.97,197.86c-11.49-1.46-23.42-1.09-35.12,1.04-3.31.6-6.58,1.45-9.87,2.15l-7.67-7.39c-4.15-4.13-8.2-8.35-12.18-12.64-1.67-1.82-3.44-3.82-3.71-6.28-.24-1.99.53-3.95,1.29-5.79,3.04-7.44,6.1-14.88,9.14-22.32-10.3-12.51-20.6-25.02-30.87-37.52,5.88-6.48,11.76-12.95,17.65-19.44,8.73,2.39,17.47,4.76,26.21,7.14.58-2.14,1.16-4.28,1.72-6.41-13.14-6.41-26.28-12.8-39.42-19.2-9.05,13.89-27.41,21.53-31.66,37.53-3.93,14.94,6.47,30.76,3.01,45.81-1.55,6.77-5.74,12.58-9.85,18.18-3.53,4.82-8.78,10-11.28,15.4-.35.79-.61,1.36-.73,2.22-.35,2.26.05,5.02,0,7.33-.04,1.89-.07,3.77-.08,5.65-.03,4.44.05,8.89.19,13.34.03.68.05,1.37.08,2.05.19,4.62.52,9.23.9,13.83-10.97,6.09-21.47,12.95-31.05,20.8-3.2,2.63-6.61,6.18-5.63,9.73,1.04,3.76,6.23,4.82,10.62,4.99,20.09.81,40.48-3.95,60.09-9.95,34.68-10.62,68.16-25.29,99.26-43.51,4.75-2.78,10.18-7.26,8.52-11.8-1.21-3.32-5.64-4.45-9.56-4.95Z"/>
    </clipPath>
  </defs>
  <g class="cls-16">
    <g id="Layer_1" data-name="Layer 1">
      <image width="2649" height="2649" transform="translate(0 242.2) rotate(-18.43) scale(.15)" xlink:href="../../Downloads/cream immunity only.png"/>
      <image width="2649" height="2649" transform="translate(816.78 262.58) rotate(.64) scale(.09)" xlink:href="../../Downloads/cream immunity_only.png"/>
      <g>
        <g>
          <path class="cls-21" d="M975.15,304.34c1.89.64,4.04,1.66,4.2,3.43.18,1.87-1.99,3.24-3.93,4.07-8.92,3.8-18.93,5.15-28.8,5.79-17.46,1.14-35.06.25-52.21-2.64-2.62-.44-5.83-1.53-5.86-3.86-.02-1.71,1.78-2.97,3.46-3.87,4.93-2.63,10.38-4.5,16.01-5.54,2.62-.48,5.29-.66,7.86-1.32,1.61-.42,3.16-1.03,4.81-1.33,5.41-1.01,11.56-.47,17.05-.33,6.01.14,12.01.51,17.95,1.28,6.64.86,13.2,2.23,19.45,4.33Z"/>
          <path class="cls-21" d="M905.68,246.25c3.77,1.92,7.53,3.83,11.29,5.75-2.5,7.4-5,14.8-7.5,22.2,2.64,2.84,5.3,5.67,7.94,8.5.66.7,1.34,1.45,1.57,2.39.3,1.16-.16,2.36-.6,3.47-1.06,2.61-2.17,5.21-3.33,7.78l-4.02,8.51c-1.52,3.05-3.12,6.06-4.77,9.04.3.01.6.02.9.04,5,.24,9.99.48,15,.72,4.43.21,9.3,1.04,13.7.34,3.93-.63,7.98.32,11.98-.19,2.22-.28,4.4-.76,6.53-1.45.57-.18,6.01-2.04,5.91-2.51-.54-2.51-1.14-5.01-1.8-7.48-.84-3.2-1.8-6.36-2.84-9.5-.1-.31-.21-.63-.32-.94-.7-2.03-1.42-4.05-2.2-6.05-.33-.84-.66-1.69-1.01-2.53-.42-1.03-.71-2.35-1.25-3.31-.2-.37-.42-.58-.71-.88-2.05-2.01-5.3-3.45-7.72-5.02-2.81-1.82-5.7-3.72-7.55-6.51-4.14-6.2-2.15-15.11-6.48-21.18-4.65-6.49-14.24-6.79-20.7-11.51-4.83,5.14-9.66,10.27-14.49,15.4.62.87,1.25,1.73,1.87,2.6,3.54-2.57,7.07-5.14,10.6-7.71Z"/>
          <path class="cls-24" d="M911.02,304.86c3.53.2,9.54.49,10.28.51,7.68.21,15.38.03,23.04-.53,3.84-.28,7.66-.66,11.48-1.12.88-.11,1.77-.22,2.66-.34-.84-3.2-1.8-6.36-2.84-9.5-5.36,1.09-10.79,1.8-16.23,2.42-8.09.91-16.43,1.59-24.36.06l-4.02,8.51Z"/>
          <path class="cls-22" d="M926.42,296.67c-.08,1.78.04,3.57.19,5.35.08.89.22,1.79.24,2.68.01.84-.05,1.68.04,2.53,5.78-.24,11.55-.54,17.32-.9-.09-.51-.27-.96-.51-1.42-.27-.53-.34-1.11-.48-1.7-.26-1.16-.53-2.32-.79-3.48-.39-1.77-.99-3.46-1.3-5.22-.71.35-1.68.33-2.45.44-1.66.23-3.31.46-4.97.68-.49.07-7.29.76-7.3,1.03ZM929.87,301.46c-.04-.9-.35-1.75-.48-2.64.02.11,1.9.07,2.09.06.93-.02,1.86-.11,2.78-.25,1.27-.2,2.45-.66,3.69-.92.54-.11,1.1-.32,1.66-.27.88,2.14,1.57,4.36,2.07,6.62-3.95.59-7.95.86-11.95.82.07,0,.11-.61.13-1.31.02-.89.01-1.94,0-2.1Z"/>
          <g class="cls-11">
            <g class="cls-23">
              <g>
                <g>
                  <path class="cls-9" d="M919.17,304.72c2.14-4.79,4.74-9.54,6.21-14.59.29-.98.38-1.42.53-2.42.52-3.42-.46-6.03-2.91-8.38s-6.08-4.22-6.16-7.97c-.08-3.54,2.03-6.51,3.63-9.48,1.9-3.52,3.21-7.63,2.59-11.69-.23-1.51-.42-4.68-2.47-4.99-.46-.07-.89.01-1.35.11-5,1-10,2.18-15,3.22-1.15.24-2.31.44-3.44.75-1.5.41-3.22,1.46-4.83,1.58,3.13.38,6.26.76,9.39,1.14l-2.56-.48,2.58.68-.58-.5.26.27c-.86-1.89-.65-4.36-.18-6.33.67-2.83,2.33-5.28,4.16-7.49,1.99-2.41,4.24-4.56,6.34-6.87,1.29-1.34,2.44-2.79,3.47-4.35,1.11-1.67,1.23-3.42.37-5.25-.18-.91-3.86-1.01-4.29-1.06-.36-.05-4.09-.87-4.42-.04-1.39,3.5-2.87,6.38-5.02,9.48-1.92,2.76-3.97,5.42-6.03,8.08l.26-.31c-1.57,1.11-2.34,1.92-3.45,3.47-1.21,1.7-2.32,3.71-3.1,5.66-.94,2.37.43,3.62,2.37,4.25,1.38.45,2.76.69,4.19.91,1.87.28,4.08.93,5.96.65.79-.12,1.33-.36,1.95-.85.4-.28.76-.61,1.08-.98,1.33-1.31,2.86-2.32,4.58-3.03l-9.79,1.36c2.58,1.02,5.11,1.2,7.58.52.43-.27.84-.22,1.21.15.26.64.43,1.3.49,1.99.44,1.58.57,3.2.4,4.86-.21,3.47-1.53,6.64-2.83,9.81-.96,2.34-2.01,4.76-1.88,7.36.28,5.33,5.94,6.77,8.8,10.43,1.37,1.75,2.04,3.66,2.02,5.91-.21,2.06-.67,4.07-1.39,6-.52,2.91-.72,5.86-.6,8.85-.07,1.03,1.7-.1,1.85-.43Z"/>
                  <path class="cls-9" d="M919.16,303.07c2.22-4.47,4.92-8.91,6.55-13.65.27-.78.54-1.6.71-2.4.6-2.74.41-5.66-1.36-7.94s-4.43-3.42-6.11-5.69c-1.95-2.63-1.64-5.64-.37-8.52s3.05-5.14,4.07-8.01c.76-2.13,1.09-4.22,1.02-6.48-.05-1.65-.17-3.72-.92-5.24-.49-.98-1.04-1.43-2.15-1.48-2.57-.1-5.57,1.09-7.96,1.72,2-.47,3.99-.94,5.99-1.42-3.53.42-7.06.83-10.58,1.25,2.04-.13,4.07-.27,6.11-.4-2.07,0-8.9-.49-12.27.57-1.3.41-2.94,1.44-4.32,1.5l2.44.81-1.52-.6,7.01,3.64c-.88-1.88-.63-4.33-.16-6.29.69-2.84,2.33-5.3,4.16-7.53,1.99-2.42,4.22-4.59,6.32-6.92,1.29-1.35,2.44-2.82,3.45-4.39,1.11-1.77,1.26-3.63.45-5.59-.15-.98-3.24-1.57-3.82-1.76-.21-.07-3.8-1.53-4.13-.78-1.51,3.5-3.11,6.34-5.35,9.44-2.01,2.78-4.14,5.45-6.29,8.12l.29-.26c-1.54.96-2.32,1.65-3.44,3.08-.98,1.24-2.59,3.46-2.87,5.14s1.05,3.4,2.41,4.21c2.12,1.26,4.5,2.24,6.76,3.22.98.43,2.15,1.07,3.26.96.58-.06,1.11-.43,1.57-.75.41-.29.77-.62,1.1-1.01,2.12-2.01,4.56-3.41,7.33-4.2l-9.23.48c2.94.7,3.06.98,5.56.43,1.75-.39,3.48-.85,5.2-1.32l-6.04,1.44c2.03-.1,1.66,5.89,1.61,7.3-.11,3.06-1.31,6.01-2.49,8.79-1.43,3.39-4,8-1.58,11.5,1.31,1.9,2.99,3.27,4.71,4.78s3.55,2.97,4.39,5.05c.69,1.7.88,3.42.59,5.24-.21,1.64-.67,3.22-1.39,4.74-1.03,3.05-1.35,6.25-.96,9.6-.1,1.07,2.05-.01,2.24-.38Z"/>
                  <path class="cls-9" d="M919.68,304.8c2.11-4.37,6.07-10.88,7.26-16.46.6-2.82.5-5.58-1.3-7.97-1.7-2.26-4.39-3.47-6.04-5.79-1.8-2.53-1.57-4.87-.8-7.71l-.15.35.99-2.23-.17.35c1.64-2.92,3.57-5.68,4.41-8.97.75-2.93,1.08-7.39-.44-10.16-.44-.79-.83-1.36-1.82-1.45-.57,0-1.13.1-1.68.29-2.66.77-5.34,1.49-8.03,2.17l4.34-1.08c-5.15.71-10.27,1.58-15.35,2.64-1.46.57-2.97.8-4.52.68l10.21,2.54-.58-.5.27.3c-1.03-2.28-.52-5.35.25-7.6,1.22-3.62,3.79-6.45,6.27-9.26l-.29.32c2-2.05,4.22-4.12,5.99-6.39l1.61-2.19c1.07-1.66,1.22-3.4.46-5.25-.15-.97-4.49-1.32-4.91-1.39-.25-.04-4.78-1.21-5.08-.38-1.35,3.71-2.81,6.97-5.01,10.27-1.89,2.83-3.96,5.53-6.02,8.24l.29-.32c-1.61,1-2.35,1.74-3.49,3.24-.98,1.3-1.8,2.7-2.45,4.19-.45.47-.68,1.02-.71,1.64-.45,2.93,2.89,3.31,4.92,3.84l-2.79-.9c1.25.67,2.19.93,3.63,1.26,2.34.54,4.99,1.23,7.41,1.39.81.05,1.43-.06,2.14-.5,1.3-.8,2.66-2.32,3.73-3.24l-.3.25,2.59-1.42c-3.64.46-7.28.92-10.92,1.39,2.32.17,4.61.51,6.88,1.01.46-.1.91-.22,1.36-.37l-.37-.1c1.35.4,1.03.54,1.38,2.19.71,3.39.45,6.7-.63,9.98-.9,2.73-2.24,5.44-2.94,8.22-.54,2.15-.89,4.52-.12,6.67.6,1.67,2.14,3.07,3.41,4.21,1.77,1.58,3.72,2.97,5.25,4.79,1.42,1.69,1.8,3.28,1.67,5.38-.26,1.97-.77,3.88-1.53,5.71-.75,2.95-1.02,5.98-.82,9.09-.09,1.11,2.4-.67,2.55-.98Z"/>
                  <path class="cls-9" d="M922.54,305.2c1.68-4.39,3.51-8.76,5.03-13.21.6-1.74.98-3.49.94-5.33-.04-2.63-1.14-4.79-3.08-6.6-1.03-.97-2.24-1.75-3.26-2.73l-1.41-1.55c-1.22-1.28-1.56-2.8-1.05-4.57-.36-1.37-.22-2.64.43-3.8.25-.66.56-1.29.93-1.89.85-1.53,1.87-3.01,2.56-4.61,1.37-3.19,1.94-6.54,1.63-10.01-.12-1.39-.47-4.7-2.51-5-.61-.09-1.19.09-1.77.26-2.1.62-4.17,1.42-6.23,2.16-4.65,1.66-9.17,3.58-13.75,5.37l2.06-.49-2.3.35,6.92-.59-.81-.11.95.35c-1.31-1.2-1.52-2.78-1.49-4.57.07-4.03,2.47-7.5,4.99-10.44,2.42-2.81,5.27-5.19,7.67-8.02.66-.82,1.31-1.65,1.95-2.49,1.17-1.48,1.52-3.14,1.05-4.96-.03-.78-3.43-.57-3.64-.57-.49,0-3.34-.38-3.66.46-.69,2.23-1.64,4.35-2.86,6.34l-3.65,5.27c-1.31,1.71-2.63,3.41-3.98,5.1l-1.69,1.29c-1.16,1.05-2.24,3.28-2.95,4.64-.66,1.27-3.3,5.91-1.86,7.89s5.69,1.12,7.6.93c1.2-.12,2.41-.18,3.52-.69,1.49-.69,2.99-2.32,4.18-3.3l-6.87,2.34c3.08-.69,6.19-.96,9.33-.82.42-.28.89-.42,1.4-.42.83.4,1.18,5,1.06,3.85.46,4.34-1.07,8.52-2.73,12.45-.92,2.17-2.02,4.45-2.04,6.86-.03,4.65,4.29,6.43,7.3,9.19,2.15,1.97,3.55,3.77,3.61,6.95-.04,1.45-.26,2.87-.65,4.27-1.01,3.25-1.61,6.58-1.81,10-.06.37.68,1.04.9.48Z"/>
                  <path class="cls-9" d="M921.8,304.34c1.99-4.52,4.3-9.02,5.89-13.7.47-1.38.84-2.81.99-4.26.22-2.2-.23-4.39-1.61-6.16-1.72-2.22-4.42-3.44-6.12-5.7-.8-1.07-1.45-2.39-1.6-3.73l.57-3.62c.36-.98.81-1.92,1.35-2.81,1.21-2.14,2.46-4.15,3.29-6.47.76-2.13,1.1-4.22,1.04-6.47-.05-1.66-.17-3.73-.93-5.25-.48-.96-1.12-1.48-2.22-1.41-2.64.16-11.51,2.72-9.6,2.26-3.35.75-6.7,1.56-10.02,2.42-.82.12-1.6.36-2.33.73h2.52c-1.37-.06-2.74-.14-4.11-.22l8.97,2.14c-1.55-1.31-1.31-3.73-1.08-5.51.4-3,1.77-5.3,3.43-7.76l-.24.3,1.82-2.25-.24.3c2.2-2.43,4.59-4.67,6.84-7.06,1.04-1.05,1.99-2.17,2.85-3.36,1.12-1.57,1.42-3.3.9-5.17-.05-.89-3.91-1.24-4.24-1.3-.29-.05-4.11-1.09-4.43-.29-1.13,2.89-2.36,5.58-4.09,8.18-1.3,1.94-2.57,3.9-3.94,5.79-.92,1.28-1.85,2.56-2.8,3.82l-1.66,1.13c-1.02.86-1.74,2.2-2.47,3.33-.8,1.23-1.36,2.56-2.1,3.82-.55.95-.76,2.06-.28,3.1.68,1.48,2.99,1.71,4.23,2.04l-2.45-.79c1.1.55,2.11.87,3.31,1.13,1.6.33,3.2.62,4.8.88.7.18,1.41.25,2.12.22.79-.1,1.33-.37,1.95-.86.4-.3.77-.63,1.09-1.02,1.32-1.35,2.85-2.4,4.58-3.15-3.11.63-6.22,1.25-9.33,1.88,2.38.08,4.75.32,7.1.7.47-.21.96-.33,1.47-.36,1.48.57,1.16,5.75,1.09,6.87-.23,3.76-1.74,7.21-3.02,10.69-.59,1.61-1.1,2.96-1.28,4.69-.28,2.71.22,5.05,2.08,7.05,1.96,2.11,4.69,3.4,6.54,5.62,1.81,2.18,2.06,4.69,1.56,7.39-.31,1.43-.71,2.83-1.2,4.21-.24,2.76-.44,5.52-.61,8.28-.09,1.18,1.36.3,1.6-.26Z"/>
                  <path class="cls-9" d="M919.24,301.91c1.77-4.31,4.21-9.3,5.55-14.08.31-1.11.58-2.23.61-3.4.08-3.03-1.11-5.46-3.3-7.48-1.31-1.21-2.8-2.2-4.05-3.5-1.47-1.54-2.53-3.84-2.15-5.99.62-3.51,2.99-6.17,4.33-9.36.86-2.06,1.41-4.2,1.62-6.43.16-1.66.01-3.29-.45-4.87-.09-.84-.32-1.63-.68-2.39-.52-.87-1.3-1.17-2.26-1.26-1.18-.11-2.43.02-3.62.14-2.01.2-4.04.34-6.04.62-2.58.35-4.57,1.64-6.63,3.14-.9.65-1.62,1.35-2.86,1.1l4.49,1.74c-.7-1.11-.94-2.34-.72-3.67.07-1.58.44-3.08,1.09-4.52,1.13-2.63,2.97-4.87,4.88-6.96,1.59-1.74,3.25-3.42,4.81-5.18,1.29-1.41,2.46-2.9,3.52-4.49,1.02-1.71,1.37-3.54,1.06-5.51.02-.86-3.26-1.97-3.67-1.18-.85,1.94-1.95,3.72-3.31,5.34-1.47,1.57-2.89,3.19-4.25,4.86-1.65,2.17-3.54,4.08-5.67,5.75-.69.65-1.29,1.39-1.78,2.22-1.99,2.81-5.07,8.18-2.14,11.42.92,1.01,2.37,1.42,3.61,1.9,1.02.39,2.46,1.09,3.61.87,1.54-.29,3.75-2.88,4.59-3.44,2.8-1.88,6.24-2.76,9.52-3.32l-4.57.12c1.7.79,1.72,2.51,1.96,4.24.46,3.28-.34,6.86-1.61,9.86-.83,1.96-2.05,3.81-2.78,5.81-.59,1.59-1.23,4.48-.46,6.12.86,1.84,2.41,3.5,3.91,4.81,2.14,1.86,4.9,3.65,5.97,6.41.62,1.6.79,3.12.59,4.83-.08,1.03-.28,2.03-.6,3.02-1.28,3.89-2.18,7.87-2.7,11.95-.03.17.41,1.14.58.74Z"/>
                  <path class="cls-9" d="M919.12,303.64c1.79-4.26,3.45-8.56,4.97-12.92.5-1.44.79-2.93.89-4.45.15-3.01-.95-5.26-3.12-7.3-2.45-2.3-5.92-4.17-6.24-7.88-.3-3.45,1.91-6.47,3.49-9.31,1.48-2.67,2.52-5.46,2.72-8.54.15-2.21-.11-4.36-.78-6.47-.13-.58-.43-1.06-.88-1.45-.7-.55-1.53-.48-2.36-.38-1.88.21-3.73.71-5.56,1.17l4.78-.95c-4.46.63-10.71.32-15.16,2.81-1.69.95-2.97,2.38-5.05,2.33l7.32,1.45c-1.62-1.31-1.08-4.71-.62-6.4.85-3.11,2.63-5.71,4.72-8.15,1.83-2.14,3.89-4.09,5.77-6.19,1.29-1.38,2.46-2.86,3.5-4.43,1.07-1.65,1.31-3.42.71-5.31-.08-.81-2.65-.87-3.04-.92-.48-.06-2.8-.66-3.17.1-.84,2.01-1.92,3.88-3.25,5.6-1.51,1.67-2.89,3.43-4.14,5.31-1.31,1.7-2.63,3.38-3.98,5.05-.7.52-1.32,1.13-1.86,1.81-1.66,1.87-2.92,4.12-3.94,6.38-.74,1.63-1.47,3.68-.22,5.3.54.71,1.22.96,2.06,1.2,1.72.49,3.53.77,5.29,1.01,1.57.21,3.19.34,4.51-.67.98-.84,1.97-1.68,2.96-2.51,2.62-1.62,5.47-2.69,8.55-3.21-2,.44-4.01.89-6.01,1.33,2.35-.1,1.97,4.19,2.01,5.77.08,3.31-.69,6.2-2.02,9.21-1.65,3.73-4.64,8.4-1.99,12.38,2.16,3.24,5.71,5.11,8.16,8.09,1.42,1.73,1.93,3.6,1.95,5.77-.16,2.03-.57,4-1.24,5.92-.28,3.02-.53,6.05-.76,9.08-.05.61.77,1.05,1.04.36Z"/>
                  <path class="cls-9" d="M920.97,305.47c1.71-4.62,3.73-9.22,5.05-13.96.38-1.38.59-2.74.55-4.17-.06-2.66-1.25-4.72-3.15-6.54-1.29-1.25-2.79-2.19-4.01-3.52-2.12-2.33-2.95-4.6-1.66-8.23,1.14-3.18,3.28-5.85,4.42-9.04,1.3-3.66,1.76-7.89.41-11.62-.41-1.12-1-1.84-2.26-1.81-.47.01-.92.14-1.38.26-3.97,1-7.98,2-11.87,3.32-1.08.37-2.19.84-3.21,1.36-1.2.62-2.93,2.06-4.4,2.39,2.09-.16,4.19-.33,6.28-.49-.72-.46-1.05-1.1-.99-1.91-.21-1.59-.13-3.16.24-4.72.85-3.53,3.29-6.45,5.68-9.05,2.17-2.37,4.56-4.56,6.57-7.08.64-.81,1.24-1.65,1.82-2.51,1.05-1.53,1.3-3.19.72-4.96-.07-.76-2.87-.38-3.11-.37-.6.03-2.73-.16-3.07.66-1.07,3.12-2.67,5.96-4.81,8.52-1.25,1.73-2.56,3.41-3.94,5.04-1.72,2.09-3.68,3.8-5.17,6.05-.56.8-1.04,1.65-1.44,2.54-.59,1.36-1.18,2.72-1.78,4.07-.35,1.2-.75,3.19.29,4.17.73.69,1.81.73,2.77.84,1.8.21,3.86-.15,5.64-.4.69-.1,1.45-.29,2.08-.61.55-.35,1.04-.76,1.49-1.23,1.26-1.25,2.71-2.22,4.34-2.91l-5.81,1.38c2.18.01,4.33-.2,6.45-.63.61-.35,1.17-.29,1.69.18l.19.49c.68,2.12.96,4.29.82,6.52-.24,3.88-1.77,6.82-3.28,10.17-.79,1.77-1.36,3.42-1.51,5.34-.19,2.45.55,4.27,2.3,6,1.64,1.63,3.62,2.85,5.35,4.36,1.18.94,2.15,2.07,2.9,3.38l.73,3.52c-.03,1.38-.23,2.74-.61,4.07-1.05,3.43-1.76,6.94-2.13,10.52-.05.27.63,1.06.8.6Z"/>
                  <path class="cls-9" d="M921.41,302.43c1.9-4.16,5.51-10.56,6.68-15.83.62-2.81.49-5.57-1.36-7.91-1.74-2.21-4.43-3.34-6.15-5.62-1.8-2.38-1.85-4.76-.95-7.51,1.34-2.44,2.65-4.9,3.93-7.37.94-2.03,1.48-4.17,1.63-6.4.07-2.3.06-5.3-1.15-7.29-1.39-2.28-5.35-.5-7.19-.02l3.33-.75-9.63,1.07c1.79-.08,3.58-.15,5.37-.23-3.98-.08-8.45-.77-12.35.65-1.33.48-2.25,1.22-3.76.52l6.96,4.66c-1.23-2.49-.44-6.01.65-8.39s2.48-4.31,4.1-6.23c1.79-2.13,3.84-3.92,5.74-5.94,1.32-1.32,2.47-2.77,3.47-4.34,1-1.72,1.29-3.57.86-5.53-.03-.93-2.78-1.68-3.29-1.89-.18-.07-3.36-1.65-3.68-.94-.86,2.27-1.98,4.4-3.37,6.39-1.41,1.89-2.83,3.78-4.26,5.67-1.56,2.19-3.41,4.11-5.53,5.77l-.28.22c-1.09,1.13-2.07,2.36-2.93,3.68-.75.92-1.2,1.96-1.34,3.1-.04,1.08.6,2.22,1.2,3.06,1.11,1.55,2.84,2.51,4.42,3.53,1.23.8,3.32,2.63,4.99,2.73.96.06,1.68-.4,2.4-1.03.93-.97,1.94-1.86,3.01-2.68,2.34-1.49,4.91-2.46,7.69-2.92l-6.08,1.38c1.44.79,1.98,2.13,1.64,4.01l.05,3.32c-.12,3.04-1.31,5.97-2.5,8.73-1.38,3.19-4.11,7.74-1.68,11.01,2.62,3.54,7.34,5.51,9.01,9.77.67,1.71.8,3.34.58,5.17-.16,1.82-.58,3.59-1.26,5.3-.72,2.98-.87,6.03-.45,9.16-.04.89,1.28.35,1.48-.07Z"/>
                  <path class="cls-9" d="M919.93,304.82c1.56-4.26,3.25-8.5,4.66-12.82.56-1.71.87-3.41.83-5.2-.06-2.62-1.17-4.73-3.12-6.54-2.3-2.13-5.21-3.7-6.04-6.97-.48-1.26-.33-2.52.44-3.78.07-1.38.47-2.63,1.21-3.76.85-1.54,1.85-3.03,2.55-4.65,1.38-3.19,1.98-6.52,1.68-9.99-.11-1.26-.41-4.39-2.19-4.93-.55-.17-1.15-.1-1.72,0l-.78.22-11.62,2.51c-1.54.61-3.02,1.26-4.43,2.14-.88.55-2.08,1.56-3.12,1.81,2.12-.01,4.25-.02,6.37-.03-.74-.4-1.07-.99-.99-1.78-.21-1.57-.14-3.13.23-4.68.85-3.52,3.22-6.44,5.62-9.04,2.19-2.38,4.53-4.62,6.55-7.14.66-.81,1.28-1.65,1.86-2.52,1.07-1.57,1.32-3.27.76-5.1-.07-.77-2.74-.55-3.03-.55-.59,0-2.67-.31-3.04.48-.8,2.04-1.85,3.95-3.16,5.71-.7.86-1.4,1.72-2.1,2.59-1.87,2.58-3.81,5.1-5.83,7.57l-1.65,1.59c-1.8,1.94-2.96,4.47-4.02,6.86-.67,1.5-1.76,3.86-.65,5.46,1.37,1.99,5.16,1.51,7.21,1.47,1.25-.02,2.56.02,3.71-.58.55-.35,1.04-.76,1.48-1.23,2-1.94,4.38-3.24,7.14-3.91l-5.73,1.34c1.09.04,2.18,0,3.27-.1.63-.36,1.21-.3,1.75.17.33.66.52,1.36.57,2.1.46,1.6.61,3.25.45,4.93-.24,4.05-2.13,7.54-3.72,11.18-.47,1.08-.85,2.13-1.05,3.31-.34,1.95-.18,3.7.86,5.37,1.64,2.63,4.48,4.08,6.68,6.15,1.59,1.5,3.03,3.11,3.51,5.33.2,1.97.03,3.9-.52,5.78-1.11,3.45-1.67,7.02-1.68,10.69-.03.24.63,1.02.81.53Z"/>
                  <path class="cls-9" d="M921.22,301.39c1.56-3.78,4.77-10.21,5.92-15.11.27-1.16.41-2.25.38-3.42-.09-3.63-2.33-5.6-4.92-7.74-1.76-1.46-3.6-2.98-4.2-5.29-.43-1.64-.15-3.19.35-4.78.63-2,1.97-3.72,2.95-5.54,1.13-2.09,1.94-4.24,2.31-6.6.42-2.66.37-5.52-.56-8.09-.19-.53-.39-.99-.79-1.4-.72-.74-1.73-.79-2.71-.89-1.34-.13-2.72-.15-4.07-.15-1.1,0-2.16.13-3.27.13-1.49,0-3.1-.06-4.57.17-1.34.21-3.72,1.52-4.83,2.25-1,.66-1.59.96-2.77.43l5.44,4.28c-1.22-2.38-.4-5.9.68-8.21s2.53-4.29,4.16-6.2c1.76-2.06,3.71-3.94,5.51-5.95,1.3-1.37,2.45-2.85,3.47-4.44,1.06-1.75,1.38-3.64.97-5.67-.01-.96-4.72-3.12-5.11-2.36-.87,2.04-2,3.93-3.37,5.67-1.54,1.7-2.98,3.48-4.33,5.33-2.33,2.92-5.24,5.27-7.53,8.21-1.46,1.88-3.17,4.06-2.49,6.58.25.93.79,1.84,1.37,2.6.86,1.11,2.09,1.95,3.2,2.78,1.24.93,2.89,2.73,4.61,2.57,1.12-.11,1.9-1.02,2.66-1.73,3.1-2.91,7.22-4.62,11.39-5.35l-6.2-.43c2.3,1.11,1.97,3.83,1.99,6.09.03,3.44-.72,6.55-2.14,9.68-1,2.2-2.48,4.43-2.97,6.82l-.26,1.84c-.1,1.24.27,2.32,1.1,3.22.93,1.39,1.83,2.54,3.05,3.71,1.63,1.57,3.4,2.97,4.76,4.8s1.85,3.79,1.83,5.98c-.16,2.18-.63,4.3-1.42,6.35-.67,3.04-.83,6.15-.47,9.32-.02.42.57,1.23.86.53Z"/>
                  <path class="cls-9" d="M918.72,302.68c1.8-4.35,4.24-9.26,5.55-14.06.3-1.12.54-2.21.56-3.38.05-3.05-1.09-5.43-3.3-7.47-1.32-1.21-2.81-2.2-4.06-3.49-.75-.62-1.25-1.41-1.5-2.39-1.45-2.22-1.31-4.62.43-7.2,1.46-2.97,3.51-5.64,4.24-8.95s1.16-7.96-.75-10.76c-.67-.98-1.75-.97-2.81-.9-.86.06-1.7.2-2.55.33-2.33.37-5.1.36-7.45.98-3,.78-4.88,3.56-7.79,4.32l1.33.09-.88-.16,3.72,1.26c-1.69-1.31-1.19-4.46-.75-6.29.84-3.5,3.18-6.49,5.57-9.06,2.22-2.39,4.53-4.69,6.55-7.25.67-.8,1.3-1.63,1.86-2.52,1.03-1.65,1.42-3.45,1.16-5.38.03-.87-2.99-1.53-3.38-.77-1.27,2.87-3.05,5.39-5.35,7.58-1.34,1.65-2.73,3.24-4.19,4.78-1.88,2.03-3.88,3.61-5.46,5.88-1.67,2.39-3.38,5.32-3.28,8.35.04,1.26.3,2.64,1.34,3.48.85.69,2.19.98,3.21,1.26s2.37.73,3.43.52c1.68-.34,3.35-2.57,4.61-3.4,2.68-1.77,5.77-2.35,8.81-3.17l-3.69.53c2.13.02,2.11,2.41,2.3,4.1.46,4.07-.6,7.83-2.37,11.49-1.47,3.01-3.07,5.68-2.51,9.2.65,4.06,5.05,5.97,7.6,8.7s3.76,5.15,3.02,9.03l-.49,2.09c-1.23,3.9-2.3,7.84-3.22,11.83-.05.19.4,1.1.51.84Z"/>
                </g>
                <g>
                  <path class="cls-9" d="M983.25,306.77c-.56,1.91-1.76,2.58-3.35,3.41-3.15,1.62-6.75,2.28-10.12,3.32-7.28,2.51-14.83,3.82-22.64,3.94-4.7.34-9.4.49-14.1.46-10.08.06-20.29-.03-30.28-1.49l5.47.98c-5.48-1.46-11.5-3.88-12.97-10.13-.36-1.61-.36-3.22,0-4.83,1.05-1.79.72-3.36-.98-4.7-.27-.42-2.33-.4-2.52-.41-.52-.02-2.22-.32-2.55.14-1.46,2.05-3.01,4.03-3.57,6.56-.39,1.76.07,3.67.82,5.25,1.2,2.53,3.57,4.03,6.02,5.2,3.78,1.81,8.05,2.59,12.16,3.26,5.36.88,10.65,1.36,16.08,1.67,19.92,1.14,40.81.79,59.96-5.52,1.68-.55,3.37-1.13,4.58-2.48.66-.73,1.18-1.73,1.29-2.7s-.05-.97-.41-2.07c-.2-.6-2.68-.51-2.87.14Z"/>
                  <path class="cls-9" d="M984.51,304.29c-.78,2.66-4.3,3.85-6.67,4.41-3.85.68-7.62,1.71-11.31,3.07-4.58,1.04-9.2,1.75-13.88,2.13-10.92,1.14-21.79.93-32.74.28-4.49-.22-8.96-.58-13.42-1.07-3.48-.51-6.86-1.39-10.13-2.63,1.98.95,3.96,1.9,5.95,2.86-2.65-1.09-4.46-2.89-5.43-5.42-1.08-1.34-1.57-2.87-1.47-4.59l.26-2.39c.96-1.82.79-3.59-.51-5.31-.27-.73-4.02-1.74-4.62-1.12-1.8,1.43-3.1,3.21-3.92,5.35-.15,1.37.05,2.69.59,3.96,1.17,2.85,3.59,4.46,6.11,5.97,3.44,2.06,7.61,4.15,11.41,5.45,4.05,1.38,8.24,1.81,12.48,2.14,12.28.94,24.73,1.12,37.01,0,6.12-.5,12.17-1.44,18.16-2.83,3.54-.86,7.03-1.88,10.48-3.05,1.55-.63,2.85-1.46,3.73-2.94s.8-2.38.37-3.9c-.15-.52-2.24-1.08-2.44-.37Z"/>
                  <path class="cls-9" d="M983.02,306.13c-.58,2.17-2.69,2.89-4.53,3.43-1.1.23-2.22.35-3.35.37-4.61,1.73-9.33,3.01-14.16,3.83-9.34,1.89-18.77,2.63-28.29,2.82-10.34.2-20.72-.01-30.95-1.55l3.85.91-3.82-1,3.79,1.07c-4.55-1.94-8.57-5.12-9.21-10.27-.24-1.2-.21-2.41.09-3.62,1.07-1.81.73-3.41-1.03-4.78-.47-.25-.97-.38-1.52-.39-.74-.1-1.48-.17-2.22-.22-.73-.05-1.98-.4-2.49.27l-2.2,2.89-1.3,3.21c-.22,1.29-.08,2.77.36,4,1.26,3.48,4.89,5.14,8.02,6.55,3.49,1.57,7.55,2.33,11.26,3.27,5.42,1.38,10.85,1.8,16.44,2.11,9.5.54,18.99.66,28.48.04,6.14-.4,12.2-1.08,18.24-2.27,4.78-.94,9.45-2.18,14.1-3.66,1.5-.48,3.28-1.15,4.09-2.6.92-1.66.87-2.66.16-4.34-.23-.54-3.63-.83-3.83-.08Z"/>
                  <path class="cls-9" d="M988.63,307.87c-2.4,1.89-4.8,3.77-7.21,5.66l-2.01.48-9.45,2.72-9.28,1.71c-5.95.52-11.9,1.05-17.85,1.57-5.29-.03-10.57-.05-15.86-.08-4.09-.27-8.18-.54-12.27-.82-1.93-.14-3.82-.49-5.66-1.06-3.9-1.06-7.53-3.03-9.84-6.43-1.02-1.5-1.62-2.94-1.85-4.74-.28-1.19-.19-2.36.26-3.53.61-1.42.57-2.8-.11-4.15-.22-.78-3.19-.35-3.51.15-1.92,3.04-3.97,6.31-3.33,10.05.51,2.98,2.55,5.23,5.04,6.82,3.47,2.21,7.77,2.89,11.75,3.45,8.55,1.21,17.36,1.24,25.95,1.45,16.94.4,34.11-1.13,50.31-6.25,3.29-1.04,6.3-3.05,5.83-6.89-.06-.51-.75-.68-.9-.13Z"/>
                  <path class="cls-9" d="M986.67,306.35c-.81,2.35-3.06,3.44-5.26,4.22-1.22.38-2.46.64-3.72.8-4.58,1.6-9.27,2.76-14.06,3.47-10.8,1.95-21.7,2.17-32.66,1.94-10.08-.22-20.31-.25-30.09-2.87l6.1,2.16c-3.7-1.17-6.54-3.43-8.52-6.78-.6-1.1-.93-2.26-1-3.49-.24-1.21-.22-2.42.08-3.63.82-1.5.81-3-.05-4.48-.24-.81-4.33-1.29-4.77-.74l-2.51,3.11-1.55,3.2c-.23,1.22-.06,2.67.38,3.83.98,2.58,3.32,4,5.65,5.23,3.15,1.66,6.47,2.71,9.84,3.85,4.6,1.56,9.21,2.27,14.04,2.68,9.45.8,19.05,1.03,28.52.66,12.21-.48,24.4-2.09,36.06-5.87,1.89-.61,3.81-1.26,5.02-2.93,1.11-1.53,1.18-2.66.7-4.4-.17-.63-2.02-.54-2.22.03Z"/>
                  <path class="cls-9" d="M986.35,305.05c.01,5.13-15.05,7.54-16.52,7.84-7.73,1.57-15.51,2.45-23.38,2.86-7.91.41-15.84.43-23.75.01-7.26-.38-14.35-.71-21.4-2.71l1.4.49-2.87-1.18,1.36.67c-1.85-.81-3.33-2.05-4.44-3.73-1.99-1.63-2.98-3.79-2.99-6.47.05-2.54,1.15-4.76,1.84-7.18.08-.28-.56-.7-.8-.54-1.55.74-2.88,1.75-3.99,3.03-.42.36-.79.76-1.14,1.18-.43.81-.2,1.81-.06,2.71.56,3.7,2.69,6.98,5.81,9.06,5.39,3.59,11.76,5.17,18.12,5.73,13.08,1.15,26.27,1.27,39.36.25,7.75-.6,15.36-1.94,22.85-4,2.53-.7,5.43-1.24,7.84-2.44,2.56-1.27,3.77-3.57,3.29-6.29-.1-.57-.53.51-.53.7Z"/>
                  <path class="cls-9" d="M984.95,306.15c-.6,2.15-1.72,2.91-3.53,3.86-1.11.71-2.31,1.17-3.61,1.39-6.67,1.84-13.41,3.43-20.2,4.79-9.39,1.26-18.89,1.82-28.36,1.69-8.67-.12-17.4-.39-25.98-1.7l3.97.8c-3.16-.55-6.06-1.76-8.7-3.62-2.23-1.62-3.74-3.78-4.55-6.49-.37-1.59-.37-3.19-.02-4.79.95-1.61.95-3.24,0-4.89-.16-.57-2.73-.86-3.1-.5-.85.82-1.81,1.63-2.56,2.54-1.75,2.1-1.96,3.64-1.46,6.11.56,2.77,2.07,4.98,4.25,6.77,3.47,2.85,7.67,4.1,12,5.02,3.29.7,6.64,1.13,9.99,1.43,22.27,1.95,45.2,1.46,66.69-5.14,2.13-.65,4.07-1.38,5.51-3.16,1.05-1.3,1.14-2.44.9-4.01-.06-.41-1.13-.48-1.23-.09Z"/>
                  <path class="cls-9" d="M987.09,308.2l-3.4,4.41-1.72.97c-1.22.56-2.56.88-3.85,1.23-3.16.91-6.31,1.83-9.47,2.74l-42.62,2.98c-5.69-.21-11.39-.51-16.97-1.68-1.8-.11-3.48-.57-5.05-1.38-.96-.34-1.85-.82-2.66-1.43-1.32-.67-2.35-1.67-3.1-2.98-1.16-.86-1.9-1.96-2.24-3.3-.57-1.58-.74-3.1-.58-4.77,0-.8.15-1.58.43-2.33.51-1.01.41-2-.29-2.98-.25-.77-2.52-.49-2.93-.01-1.4,1.63-3.09,3.34-3.72,5.47-.35,1.21-.22,2.57.01,3.8.53,2.8,2.07,5,4.2,6.83,4.15,3.56,9.61,4.46,14.89,5.05,4.47.5,9.02.68,13.51.86,5.04.2,10.07.24,15.1.16,7.06-.11,14.07-.53,21.09-1.33,5.19-.59,9.06-1.03,14.44-2.36,3.52-.87,7.21-1.74,10.61-3.02,1.17-.44,2.27-1.01,3.22-1.83,1.56-1.34,2.04-2.88,1.85-4.82-.03-.3-.67-.77-.79-.29Z"/>
                  <path class="cls-9" d="M987.77,304.31c-.87,2.64-4.43,3.73-6.81,4.21-3.87.53-7.65,1.46-11.35,2.8-4.59,1.05-9.22,1.76-13.9,2.13-10.98,1.14-21.97,1.24-32.98.68-4.49-.19-8.97-.54-13.43-1.04-3.51-.48-6.87-1.44-10.08-2.88l2.44,1.4-2.62-1.6,2.38,1.55-3.5-4.08c-.96-1.8-1.28-3.64-.97-5.53,0-.81.15-1.59.43-2.34.54-1.37.48-2.77-.18-4.21-.09-.56-2.85-1.75-3.26-1.38l-2.67,2.4-1.7,2.59c-.47,1.5.6,3.81,1.38,5.05,1.48,2.39,3.39,4.03,5.67,5.62s4.55,3,6.94,4.21c2.87,1.45,6.03,2.25,9.19,2.72,3.54.53,7.08.7,10.65.9,6.18.34,12.35.48,18.54.35,13.88-.28,27.61-1.87,40.88-6.06,3.47-1.09,7.02-3.05,6.28-7.28-.09-.52-1.12-.82-1.32-.21Z"/>
                  <path class="cls-9" d="M985.75,307.69c-.54,3.13-2.84,5.02-6.91,5.67-3.82.99-7.61,2.07-11.38,3.23-8.99,1.92-18.09,3.01-27.3,3.25-10.93.59-21.77.1-32.54-1.46-5.5-1.28-11.74-4.14-13.19-10.27-.37-1.61-.37-3.22-.02-4.83.89-1.45.89-2.89.03-4.33-.23-.75-2.53-.78-3-.28-.82.89-1.73,1.78-2.44,2.75-1.63,2.2-1.89,3.81-1.4,6.32.54,2.77,2.09,5.02,4.22,6.82,3.17,2.67,6.93,3.83,10.92,4.58,6.24,1.16,12.92,1.37,19.18,1.61,19.52.74,39.22.07,58-5.76,3.45-1.07,7.29-2.93,6.83-7.13-.05-.5-.86-.74-1.01-.17Z"/>
                  <path class="cls-9" d="M988.22,304.22c-.55,2.68-4.07,3.79-6.31,4.31-3.86.67-7.66,1.6-11.4,2.77-4.59,1.03-9.23,1.73-13.91,2.09-11.01,1.12-22.03,1.21-33.07.65-8.64-.44-17.93-.55-25.61-5.1l2.8,1.92c-2.44-2.23-4.83-4.94-4.76-8.45l.24-2.37c.72-1.73.91-3.52.57-5.38-.01-.48-1.49-1.38-1.89-1.08-1.47,1.11-3.41,2.28-4.2,4.06-.4.9.06,2.71.29,3.72.79,3.51,3.27,6,6.06,8.11,1.79,1.35,3.8,2.66,5.8,3.67,4.05,2.05,8.59,2.75,13.06,3.13,11.47.98,23.05,1.16,34.54.43,7.66-.49,15.43-1.26,22.89-3.12,3.51-.87,7.22-1.73,10.61-3.01,2.99-1.13,5.36-3.44,4.99-6.77-.07-.66-.67.23-.71.4Z"/>
                  <path class="cls-9" d="M985.82,305.95l-3.45,4.45-1.75.66c-2.16.61-4.33,1.19-6.52,1.73-3.05.93-6.16,1.61-9.32,2.05-13.99,2.5-28.43,2.87-42.61,2.15l-9.45-.58c-4.06-.83-8.12-1.67-12.18-2.5-1.64-.87-3.31-2.02-4.56-3.42-1.95-2.2-2.99-5.08-2.73-8.03.17-1.95,1.12-3.84,1.66-5.73.1-.35-.3-1-.74-.67-1.42,1.07-4.5,2.84-4.95,4.61-.36,1.42-.05,3.51.4,4.83.83,2.44,2.29,4.34,4.22,5.99,5.69,4.86,14,5.89,21.18,6.42,13.98,1.04,28.06,1.14,42.01-.44,7.74-.87,15.29-2.38,22.74-4.69,1.14-.35,2.29-.7,3.35-1.24,1.35-.69,2.64-1.97,3.11-3.43.35-1.09.23-1.8,0-2.9-.11-.52-.43.59-.42.75Z"/>
                </g>
              </g>
            </g>
          </g>
        </g>
        <line class="cls-2" x1="917.88" y1="246.43" x2="916.02" y2="254.81"/>
        <line class="cls-2" x1="928.05" y1="266.77" x2="939.07" y2="273.16"/>
      </g>
      <image width="2649" height="2649" transform="translate(1681.27 95.99) rotate(11.24) scale(.14)" xlink:href="../../Downloads/cream immunity only_k.png"/>
      <image width="2378" height="539" transform="translate(281.94 127.46) scale(.67)" xlink:href="../../Downloads/Creamly_logo_black.png"/>
      <g>
        <g>
          <path class="cls-22" d="M126.66,253.34c-3.2,2.63-6.61,6.18-5.63,9.73,1.04,3.76,6.23,4.82,10.62,4.99,20.09.81,40.48-3.95,60.09-9.95,34.68-10.62,68.16-25.29,99.26-43.51,4.75-2.78,10.18-7.26,8.52-11.8-1.22-3.33-5.64-4.45-9.56-4.95-11.49-1.46-23.42-1.09-35.12,1.04-5.43.99-10.74,2.62-16.22,3.22-3.44.37-6.87.33-10.3.95-11.23,2.02-22.76,7.6-33.3,11.89-11.54,4.7-22.91,9.82-33.86,15.68-12.23,6.55-23.94,14.03-34.52,22.71Z"/>
          <path class="cls-22" d="M218.61,89.66c-5.89,6.49-11.77,12.96-17.65,19.44,10.28,12.5,20.58,25.01,30.87,37.52-3.04,7.44-6.1,14.88-9.14,22.32-.76,1.85-1.53,3.8-1.29,5.79.27,2.47,2.04,4.46,3.71,6.28,3.98,4.28,8.03,8.51,12.18,12.64l14.06,13.54c5.2,4.79,10.5,9.46,15.9,14.02-.57.24-1.15.49-1.72.74-9.52,4.14-19.02,8.28-28.54,12.42-8.44,3.67-17.27,8.86-26.3,10.73-8.08,1.68-15.23,6.49-23.36,8.45-4.5,1.08-9.09,1.76-13.73,1.99-1.23.07-13.14.47-13.29-.51-.8-5.27-1.48-10.54-2.02-15.83-.71-6.82-1.2-13.65-1.49-20.5-.03-.68-.05-1.37-.08-2.05-.14-4.45-.22-8.9-.19-13.34.01-1.88.04-3.76.08-5.65.05-2.31-.35-5.07,0-7.33.12-.86.38-1.44.73-2.22,2.5-5.4,7.74-10.58,11.28-15.4,4.1-5.6,8.3-11.41,9.85-18.18,3.46-15.05-6.94-30.87-3.01-45.81,4.24-16,22.61-23.64,31.66-37.53,13.14,6.41,26.28,12.8,39.42,19.2-.56,2.13-1.14,4.27-1.72,6.41-8.74-2.38-17.48-4.76-26.21-7.14Z"/>
          <path class="cls-7" d="M251.37,207.19c-6.7,2.98-18.13,7.96-19.55,8.54-14.74,6.05-29.79,11.36-45.05,15.92-7.64,2.28-15.33,4.36-23.07,6.26-1.79.44-3.6.87-5.4,1.29-.71-6.82-1.2-13.65-1.49-20.5,11.19-1.83,22.25-4.44,33.24-7.25,16.35-4.18,33.01-9.01,47.26-17.81l14.06,13.54Z"/>
          <path class="cls-21" d="M200.58,206.01c-3.39.79-6.76,1.56-10.14,2.33-1.58.35-3.44,1.1-5.08.95.7,3.65.79,7.36,1.33,11.07.35,2.44.68,4.88,1.03,7.32.18,1.23.46,2.42.33,3.65-.12,1.05-.14,2.08.06,3.12,11.45-3.54,22.87-7.21,34.24-11-.46-1.71-1.19-3.29-1.79-4.93-.63-1.74-1.01-3.6-1.51-5.38-1.01-3.56-2.09-7.11-3.56-10.51-.22-.52-13.91,3.13-14.91,3.37ZM213.87,218.52c.55,1.35,1.07,2.5,1.22,2.45-7.72,3.02-15.67,5.43-23.77,7.2-.69-4.75-.97-9.55-.84-14.35,1.05-.5,2.28-.51,3.41-.69,2.6-.41,5.23-.39,7.83-.93,1.89-.39,3.76-.91,5.58-1.56.37-.13,4.06-1.43,4.01-1.66.4,1.83.43,3.71,1.01,5.48.1.32.86,2.35,1.55,4.06Z"/>
          <g class="cls-11">
            <g class="cls-17">
              <g>
                <g>
                  <path class="cls-9" d="M246.7,211.49c-4.75-6.57-9.57-13.04-14.64-19.37-1.76-2.19-3.5-4.36-5.06-6.69-2.71-4.07-4.83-8.65-4.62-13.66.84-2.87,1.67-5.75,2.51-8.62l1.43-2.79c1.01-1.94,2.04-3.86,2.98-5.85,1.33-2.81,2.76-5.81,2.95-8.97.13-2.04,0-4.18-.66-6.13s-1.85-3.68-3.1-5.27c-3-3.81-7.15-6.68-10.72-9.91-4.99-4.51-8.85-10.29-10.95-16.7-1.01-3.07-1.68-6.43-1.78-9.64-.06-1.92.18-3.04,2.69-3.88l-4,1.22,3.53-.93-6.51,1.44c4.37-.78,8.74-1.56,13.11-2.33l-6.57.81c3.86-.33,7.72-.67,11.57-1l-8.39.11c5.19.09,10.26,1,15.21,2.74.81.28,1.63.51,2.46.69,2.78.56,5.77.56,8.59.59,1.85.02,4.04.12,5.55-1.14,1.24-1.04,1.59-2.4,1.67-3.96.22-4.25-2.04-8.51-4.55-11.78-3.23-4.21-7.63-7.44-12.15-10.13-5.1-3.04-10.57-5.21-15.94-7.68s-10.69-5.62-15.69-9.25l.29.23c-2.47-2.31-4.93-4.62-7.4-6.93-.66-.25-1.35-.37-2.06-.37-1-.09-1.99-.15-2.99-.19-.28-.01-3.52-.05-3.32.31.89,2.08,2.06,3.98,3.51,5.69,1.19,1.82,2.73,3.31,4.61,4.47,1.87,1.41,3.86,2.62,5.86,3.83,3.3,1.99,6.7,3.79,9.99,5.81l4.24,2.6c1.19.61,2.45,1.07,3.76,1.39l-.35-.19c6.46,3.94,12.86,8.32,17.1,14.74,1.66,2.52,3.11,5.34,3.49,8.39.11.92,0,1.5-.49,2.31l.29-.25c-.67.61-1.47.92-2.41.94,2.94.12,5.88.24,8.83.36-3.39-.42-6.42-2.14-9.76-2.8-4.31-.85-8.54-1.39-12.94-1.38-2.08,0-4.22-.1-6.26.34-2.47.58-4.94,1.18-7.41,1.79-.86.15-1.67.43-2.44.83-2.35,1.14-4.68,3.16-4.78,5.96.24,3.15.86,6.21,1.85,9.21l1.74,4.38c2.45,5.54,6.35,10.45,10.85,14.45,5.16,4.59,12.82,9.49,14.23,16.85,1.13,5.88-2.67,11.39-4.96,16.52s-3.72,10.11-3.16,15.66c.45,4.37,3.4,8.76,5.98,12.16,1.42,1.8,2.89,3.55,4.43,5.25,5.15,7.09,11.55,12.78,19.19,17.06.42.3,1.96-.73,1.55-1.29Z"/>
                  <path class="cls-9" d="M246.79,209.82c-2.99-5.2-6.4-10.08-10.25-14.66-1.59-2.04-3.21-4.07-4.83-6.08-1.75-2.18-3.49-4.41-4.94-6.81-2.77-4.55-4.61-9.95-3.26-15.3,2.34-9.26,11.29-17.52,9.07-27.64-1.03-4.71-4.53-8.09-8.01-11.2-2.03-1.82-4.18-3.51-6.21-5.34-2.7-2.44-5.12-5.21-7.05-8.3-2.05-3.29-3.53-6.88-4.51-10.62-.66-2.5-1.42-5.42-1.23-8.04.08-1.15.49-1.95,1.21-2.88,3.32-.8,6.67-1.22,10.06-1.25,2.52-.19,5.04-.09,7.55.31l-6.4-.89c3.18.57,6.43,1.32,9.47,2.41,1.46.52,3.02.82,4.54,1.12,2.43.48,5.01,1.1,7.5,1.12,1.26,0,2.65-.29,3.61-1.2,1.85-1.76,1.43-4.74.93-6.92-2.28-9.83-11.73-16.37-20.16-20.76-5.3-2.76-10.9-4.88-16.24-7.56-3.4-1.71-6.6-3.7-9.64-5.98-3.33-2.49-6.06-5.34-8.89-8.39-.56-.37-1.16-.63-1.83-.77-1.21-.37-2.42-.71-3.65-1.01,0,0-2.67-.83-2.09.17,1.47,2.54,2.64,4.94,4.83,6.99,2.63,2.46,5.74,4.36,8.82,6.2,3.33,1.99,6.77,3.78,10.1,5.77,1.82,1.33,3.77,2.39,5.86,3.2,1.94.72,3.72,1.74,5.34,3.06,5.58,3.9,10.69,8.5,14.08,14.47.99,1.63,1.67,3.36,2.03,5.21.28.88.48,1.77.61,2.68.04,1.03-.38,1.58-1.17,2.21l.32-.2c-1.02.36-2.07.44-3.15.25l8.37,1.57c-3-.86-5.87-2.18-8.94-2.82-3.46-.72-6.99-1.41-10.51-1.81-2.48-.28-5-.67-7.48-.47-2.6.41-5.14,1.03-7.63,1.85-1.28.29-2.51.7-3.7,1.26-.93.46-1.64.99-2.33,1.75-1.84,2.04-1.49,3.09-1.15,5.65,1.3,9.88,6.51,18.91,13.82,25.59,4.85,4.43,10.45,8.51,13.38,14.57,3.37,6.95-1.25,13.51-3.96,19.68s-4.74,12.53-2.55,18.98c1.13,3.34,3.06,6.35,5.09,9.21,1.44,1.91,2.94,3.77,4.49,5.58,5.16,6.88,11.37,12.64,18.6,17.29.39.3,2.48-.67,2.08-1.29Z"/>
                  <path class="cls-9" d="M247.28,211.51c-2.17-3.37-4.33-6.74-6.5-10.11-2.51-3.22-5.03-6.43-7.54-9.65-1.38-1.74-2.79-3.46-4.07-5.28-1.6-2.28-3.02-4.64-4.06-7.23-.48-.98-.81-2-.97-3.08-.65-1.98-.59-3.99.2-6.05-.16-2.12.24-4.08,1.18-5.9.38-.97.83-1.91,1.33-2.82.97-1.89,1.98-3.76,2.92-5.67,2.03-4.12,4.55-9.01,3.82-13.79-1.36-8.85-9.91-13.46-15.8-19.21-5-4.88-8.55-11.05-10.32-17.8-.63-2.41-1.12-4.91-1.2-7.41-.04-1.13.15-1.92.58-2.97l-.2.33,1.85-1.33-7.88,2.59,9.4-2.67c-3.04.66-6.09,1.32-9.13,1.98,4.69-.79,9.38-1.58,14.06-2.37-2.44.24-4.88.48-7.32.72l12.33-.9-9.34-.16c5.17.08,10.21.97,15.14,2.68.84.27,1.69.51,2.54.71,3.02.61,6.27.71,9.33.85,1.96.09,4.25.29,5.87-1.04,1.08-.89,1.49-1.96,1.62-3.33.86-8.63-6.76-16.04-13.22-20.48-4.74-3.26-9.96-5.66-15.21-7.95-5.62-2.45-10.95-5.08-16.14-8.35l.33.24c-1.35-.98-2.7-1.96-4.04-2.94l.31.24-3.85-3.35.28.25-3.81-3.88c-.76-.28-1.55-.43-2.37-.46-1.15-.13-2.3-.24-3.45-.32-.34-.03-4-.11-3.84.17,1.27,2.73,2.9,5.21,4.91,7.45,1.57,1.6,3.28,3.03,5.12,4.29,3.24,2.38,6.68,4.35,10.18,6.31l-.36-.21c2.87,1.81,5.75,3.63,8.62,5.43,1.18.5,2.41.87,3.68,1.12l-.38-.18c6.42,4.12,12.91,8.66,17.18,15.11,1.61,2.43,2.97,5.1,3.31,8.06.09.78-.04,1.19-.54,1.83l.33-.25c-1.11.55-2.01.67-3.25.85l10.76.62c-2.25-.28-4.25-1.12-6.38-1.82-2.68-.88-5.51-1.64-8.32-1.92-4.8-.48-10.42-.56-15.16.19-3.18.5-6.57,1.01-9.57,2.16-2.08.79-3.32,1.93-4.42,3.81l.2-.33c-.44.55-.68.8-.89,1.42-.15.38-.21.79-.18,1.21l.64,4.68c.78,3.88,2.2,7.58,4.07,11.06,1.96,3.64,4.34,7.31,7.3,10.23,6.6,6.5,18.14,12.8,16.75,23.61-.61,4.74-3.04,8.89-4.76,13.28-1.23,3.13-2.34,6.47-2.66,9.83-.26,2.67-.21,5.48.52,8.05.77,2.71,2,5.27,3.56,7.62,1.21,1.81,2.54,3.53,3.94,5.2,2.04,2.34,4.11,4.65,6.22,6.92,3.93,4.96,8.73,8.96,14.38,11.99.42.31,2.71-1.26,2.31-1.89Z"/>
                  <path class="cls-9" d="M250.04,212.14c-5.18-6.39-10.35-12.79-15.52-19.19-1.76-2.19-3.49-4.36-5.05-6.7-3.26-4.9-5.46-10.49-4.15-16.5,1.78-8.17,8.7-14.68,9.32-23.21.24-3.3-.48-6.34-2.09-9.23-1.26-2.25-3.35-4.22-5.23-5.96-1.61-1.49-3.28-2.91-4.95-4.34-4.83-4.11-8.98-8.74-11.67-14.54-1.63-3.5-2.65-7.2-3.15-11.02-.3-2.32-.9-4.38,1.03-6.36l-3.33,2.25c1.29-.76,2.58-1.53,3.87-2.29l-4.71,2.49,3.92-1.67-3.22,1.1c2.68-.62,5.37-1.24,8.05-1.86l-3.3.67c2.74-.38,5.47-.77,8.21-1.15l-3.38.33c3.07.37,6.14.75,9.21,1.12l4.56,1.02c1.05.37,2.04.86,3.13,1.13,2.28.56,4.65.36,6.97.21,1.82-.12,3.85-.11,5.45-1.06s2.19-2.66,2.07-4.49c-.27-4.24-2.32-8.49-4.9-11.8-3.25-4.18-7.74-7.47-12.26-10.14-5.7-3.37-11.87-5.74-17.82-8.62-3.86-1.87-7.71-4.06-11.1-6.68-3.11-2.4-5.81-4.9-8.54-7.75-.71-.75-2.76-.21-3.59-.12.09,0-3.79.34-3.47.9,1.92,3.42,3.65,6.49,6.68,9,1.79,1.48,3.58,2.76,5.57,4s3.9,2.35,5.9,3.44c3.66,1.98,7.12,4.42,10.83,6.29,2.27,1.01,4.53,2.03,6.8,3.04l3.52,2.33c2.79,1.95,5.35,4.21,7.6,6.75,2.05,2.31,3.87,4.89,4.88,7.84l.84,3.5c.22,1.65-.84,2.63-3.17,2.93l7.21-.38c-1.45-.16-2.84-.53-4.17-1.1-3.17-1.27-6.45-2.11-9.84-2.53-3.69-.49-7.08-.51-10.79-.32-1.81.09-3.75.17-5.59.45s-3.89,1.34-5.62,2.2c-2.34,1.16-4.71,3.25-5.11,5.94-.21,1.9,0,3.79.62,5.67.66,3.11,1.67,6.11,3.03,8.99,2.23,4.48,5.07,8.63,8.66,12.15,4.88,4.79,11.26,8.28,14.71,14.37,3.88,6.84-.55,14-3.36,20.35-2.6,5.88-4.35,12.62-2.06,18.9,1.14,3.13,3.11,6.12,5.15,8.73,1.38,1.7,2.82,3.36,4.32,4.96,5.35,6.45,11.57,11.93,18.65,16.41.29.21.66-.13.42-.42Z"/>
                  <path class="cls-9" d="M249.25,211.13c-4.77-6.59-9.59-13.12-14.6-19.53-1.73-2.22-3.45-4.41-4.99-6.76-1.22-1.86-2.28-3.76-3.11-5.82-.68-1.47-1.12-3.01-1.33-4.63l.25-5.96c.97-4.57,3.73-8.68,5.77-12.8,1.6-3.25,3.45-6.91,3.63-10.6.22-4.36-1.23-8.01-3.92-11.39-3.02-3.79-7.18-6.67-10.75-9.89-4.98-4.5-8.82-10.24-10.92-16.63-1.01-3.07-1.67-6.42-1.78-9.63-.05-1.42.02-2.73,1.6-3.54l-3.76,1.47,4.91-1.78-6.12,1.95c1.9-.55,3.81-1.09,5.71-1.64l-6.28,1.51c4.27-.79,8.54-1.57,12.81-2.36-2.11.25-4.23.51-6.34.76l11.34-.92-8.12-.08c5.78.36,11.4,1.41,16.85,3.15.78.26,1.59.41,2.41.45,2.77.36,5.78.84,8.57.64,1.48-.1,2.95-.23,4.06-1.36,1.37-1.4,1.29-3.45,1.03-5.24-1.59-10.87-11.63-17.78-20.58-22.5-3.98-2.1-8.12-3.78-12.2-5.67-2.74-1.23-5.41-2.59-8.02-4.09-5.28-3.13-9.96-7.05-14.04-11.76-.66-.27-1.34-.41-2.06-.42-1-.11-2-.2-3-.26-.28-.02-3.53-.1-3.35.22,1.55,2.77,2.99,5.29,5.15,7.6,1.67,1.78,4.98,4.04,6.95,5.35,3.97,2.64,8.1,5.01,12.14,7.54l4.33,2.71c1.17.52,2.38.92,3.64,1.2l-.33-.18c6.39,4.04,12.91,8.49,17.17,14.88,1.58,2.36,2.97,5,3.25,7.89.08.85-.06,1.35-.55,2.07l.28-.25c-1.12.66-1.94.74-3.25.92,3.14.18,6.29.36,9.43.54l-3.38-.42,2.58.45c-4.72-1.33-9.02-3.22-13.93-3.79-3-.35-6.07-.52-9.09-.55-1.62-.02-3.28-.1-4.87.23-2.5.65-4.99,1.31-7.49,1.97-.83.16-1.61.45-2.35.85l-2.08,1.31c-.71.57-1.23,1.28-1.55,2.13-.45.65-.83,1.05-1,1.83-.26,1.85-.07,3.68.57,5.52.64,3.12,1.63,6.13,2.98,9.01,2.21,4.51,5,8.8,8.55,12.37,4.96,4.99,11.42,8.63,14.97,14.89,1.72,3.04,2.15,6.2,1.39,9.61-.82,3.7-3.13,7.57-4.64,11.07-2.54,5.87-4.53,12.68-2.32,18.99,1.11,3.18,3.09,6.22,5.11,8.88,1.43,1.82,2.92,3.59,4.47,5.31,5.07,6.93,11.4,12.41,18.99,16.44.47.32,1.56-.78,1.19-1.28Z"/>
                  <path class="cls-9" d="M246.57,208.27c-5.38-6.7-10.86-13.29-16.3-19.93-2.4-2.93-4.76-5.99-6.42-9.42l-1.23-3c-.78-1.98-.99-4.01-.63-6.1-.15-2.08.18-4.08.99-6l1.22-2.83c3.77-8.02,10.58-17.29,4.95-26.2-2.34-3.7-5.75-6.56-9.06-9.36-1.67-1.42-3.35-2.81-4.94-4.32-1.72-1.6-3.22-3.39-4.49-5.36-1.43-1.79-2.52-3.78-3.25-5.98-1.53-2.66-2.56-5.5-3.07-8.53l-.61-4.57c-.09-1.34-.06-2.15.68-3.25.42-.96,1.2-1.48,2.34-1.55l1.2-.2c4.99-.74,10.04-.56,15.04-.15l-2.16-.31,4.91.95-2.15-.51c4.37,1.36,8.51,2.98,13.06,3.54,1.56.19,3.36.06,4.52-1.14,1.78-1.85,1.43-4.48.89-6.76-2.2-9.31-10.57-15.61-18.51-20.03-5.22-2.9-10.76-5.15-16.12-7.76-3.41-1.66-6.46-3.47-9.58-5.64-1.94-1.09-3.67-2.44-5.18-4.04-1.77-1.55-3.32-3.3-4.66-5.25-.49-.6-1.61-.8-2.34-.94-.17-.03-1.4-.2-1.03.46.79,1.82,1.84,3.46,3.16,4.92,1.18,1.67,2.66,3.05,4.43,4.13,1.21.89,2.48,1.7,3.76,2.48,2.64,1.62,5.4,2.97,8.16,4.34,4.86,2.42,10.3,4.67,14.86,7.57,2.91,1.85,5.66,3.88,8.17,6.26,1.51,1.33,2.86,2.8,4.06,4.42l3.57,6.68c.37.96,1.47,4.62,1.1,6.3s-1.67,2.19-3.32,2.43l1.49.05c-1.96-.78-3.96-1.45-6-2.02-.71-.22-1.42-.39-2.15-.51-2.33-.47-4.69-1.02-7.06-1.25-3.34-.54-6.69-.57-10.04-.09l-5.07.73c-1.27.28-2.94.7-3.89,1.63-2.39,2.34-1.42,5.76-.91,8.72,1.52,8.88,6.82,16.91,13.47,22.78,5.85,5.17,13.51,10.22,14.47,18.63.92,8.1-5.01,14.4-7.39,21.68-1.76,5.36-1.41,10.72,1.11,15.81,1.04,2.1,2.39,4.08,3.77,5.97,1.37,1.75,2.79,3.46,4.28,5.12,5.56,6.47,11.51,12.56,17.85,18.27.42.41.19-.71.05-.89Z"/>
                  <path class="cls-9" d="M246.44,210.27c-5.18-6.15-10.29-12.34-15.39-18.56-1.77-2.16-3.52-4.3-5.08-6.62-1.24-1.85-2.32-3.74-3.16-5.8-.69-1.47-1.14-3.01-1.36-4.63l1.12-8.99c1.54-4.45,4.26-8.53,6.2-12.81,1.48-3.27,2.81-7.08,2.25-10.72-1.48-9.57-11.34-14.35-17.34-20.93-4.68-5.12-8.01-11.55-9.35-18.38-.39-2.01-.82-4.33-.56-6.39.27-2.16,1.99-2.72,4-3.06l-3.13.38c4.38-.32,8.75-.64,13.13-.96l-5.03-.12,14.13,3.04.66.2c1.06.32,2.06.54,3.16.67,2.45.29,5.1.61,7.56.26,1.41-.2,2.51-.61,3.39-1.78,1.65-2.18.93-5.96.09-8.2-3.33-8.83-11.6-14.75-19.68-18.98-5.96-3.12-12.29-5.45-18.21-8.66-2.67-1.44-5.19-3.05-7.64-4.85-3.28-2.41-6.02-5.11-8.84-8.07-.44-.24-.92-.35-1.43-.34-.93-.09-1.85-.15-2.78-.18-.3,0-1.97-.16-1.49.63,1.64,2.73,2.32,4.22,4.68,6.47,2.09,1.99,4.44,3.68,6.83,5.27,3.86,2.58,8.12,4.69,12.16,6.97l4.16,2.34c1.9.69,3.68,1.59,5.35,2.71,6.77,4.13,13.42,9.47,16.84,16.8.89,1.91,1.77,3.98,1.83,6.12.05,1.71-1.2,2.41-2.8,2.65l6.81.37c-3.36-.41-6.5-1.9-9.75-2.81-3.42-.96-7.76-1.26-11.28-1.48-2.57-.16-4.99-.13-7.55.12-3.13.3-6.38.53-9.32,1.75-2.34.97-3.87,2.75-3.74,5.37.5,9.93,5.61,19.6,12.85,26.25,5.11,4.7,11.7,8.86,14.67,15.41,3.74,8.26-1.87,15.83-4.88,23.25-.92,2.26-1.55,4.18-1.88,6.61-.26,2.04-.3,4.09-.13,6.14.42,2.18,1.14,4.25,2.18,6.21,1.53,3.03,3.63,5.77,5.83,8.34,3.54,4.01,7.16,7.94,10.86,11.8,3.52,2.76,7.08,5.47,10.67,8.14.55.42.66-.65.41-.96Z"/>
                  <path class="cls-9" d="M248.32,212.25c-5.27-6.19-10.49-12.41-15.65-18.68-1.78-2.16-3.53-4.31-5.09-6.63-3.3-4.89-5.48-10.41-4.23-16.45,1.71-8.32,8.63-14.87,9.26-23.54.32-4.33-1.21-8.07-3.87-11.41-3.03-3.79-7.2-6.67-10.77-9.91-4.99-4.52-8.85-10.31-10.94-16.73-1-3.07-1.68-6.44-1.77-9.64-.04-1.59.38-2.86,1.87-3.63l-2.78,1.1,2.28-.69-2.93.71c8.17-1.58,16.06-1.14,23.68,1.34,1,.43,2.02.77,3.07,1.02,1.86.35,3.57.25,5.44.05,2.66-.28,6.29-.25,7.65-3.04,1.12-2.28.47-5.68-.34-7.84-1.36-3.62-3.53-6.81-6.25-9.56-3.78-3.83-8.4-6.74-13.13-9.25-4.01-2.1-8.13-3.98-12.34-5.66-8.4-3.66-15.87-8.86-22.42-15.59-.56-.57-2.87.14-3.55.25-.22.04-2.49.34-2.21.83.86,1.93,2,3.67,3.41,5.22,1.34,1.78,2.9,3.36,4.68,4.74,1.26,1.04,2.63,2.09,3.97,3.02,2.26,1.55,11.71,6.57,12.16,6.83,2.65,1.49,5.19,2.82,7.95,4.1,3.7,1.71,7.03,3.75,10.13,6.44,2.51,2.19,4.83,4.51,6.69,7.29,1.68,2.49,3.09,5.37,3.44,8.4.19,1.65-.95,2.65-2.35,3.25l1.96-.45-1.46.23c1.71-.15,3.42-.31,5.12-.46-1.47-.18-2.87-.55-4.23-1.13-2.37-.98-4.82-1.65-7.34-2.02-4.38-.82-8.68-1.07-13.15-.79-4.63.29-10.1.8-14.04,3.63-2.38,1.71-2.08,4.43-1.73,6.99,1.37,9.9,6.47,18.57,13.94,25.1,4.88,4.26,10.47,8.02,13.46,13.98,3.97,7.9-2.08,15.75-4.8,22.86-1.93,5.04-2.74,10.56-.85,15.72,1.16,3.18,3.09,6.01,5.14,8.67,1.39,1.7,2.84,3.35,4.35,4.95,5.44,6.38,11.56,12.01,18.38,16.88.46.37.42-.21.19-.48Z"/>
                  <path class="cls-9" d="M248.92,209.22c-5.09-6.95-10.21-13.85-15.59-20.58-1.39-1.74-2.73-3.52-3.96-5.38-2.75-4.13-4.72-8.6-4.62-13.63.12-2.61.87-5.04,2.24-7.3.68-1.97,1.53-3.86,2.54-5.67,1.22-2.31,2.56-4.7,3.47-7.14,1.65-4.43,2.2-8.91.07-13.31s-5.96-7.43-9.54-10.46c-4.71-3.99-8.89-8.01-11.88-13.53-1.49-2.74-2.61-5.55-3.4-8.56-.69-2.61-1.35-5.32-1.23-8.04.05-1.16.51-1.98,1.24-2.9,3.34-.78,6.72-1.18,10.13-1.2,3.7-.26,7.36.08,11,1.02-1.89-.43-3.78-.85-5.67-1.28,3.85,1.1,7.61,2.45,11.51,3.38,1.96.47,4.12,1.08,6.16,1.01,3.21-.11,4.64-2.6,4.52-5.62-.16-3.96-2.34-7.95-4.73-11.01-2.5-3.19-5.72-5.86-9.05-8.13-6.15-4.19-13.02-6.69-19.65-9.99-5.39-2.32-10.34-5.32-14.84-9.01-2.5-2.08-4.75-4.41-6.74-6.99-.48-.37-1.01-.63-1.6-.77-1.07-.38-2.15-.72-3.24-1.03.09.02-2.51-.81-1.9.16.92,1.87,2.09,3.54,3.53,5.02,1.28,1.65,2.83,3.03,4.63,4.14,2.5,1.73,5.18,3.33,7.83,4.8,2.59,1.44,5.2,2.82,7.77,4.3,1.84,1.24,3.79,2.28,5.83,3.13,1.93.76,3.7,1.8,5.31,3.13,6.57,4.7,12.7,10.43,15.61,18.12.16.42,1.37,4.11,1.03,5.51-.41,1.68-2.66,1.62-3.99,1.45l5.93,1.33c-3.41-.99-6.67-2.36-10.16-3.08-2.82-.58-5.66-1.14-8.51-1.5-1.91-.31-3.82-.41-5.73-.3-1.71.35-3.41.7-5.12,1.05-1.92.45-5.54,1.22-7.4,2.62-1.1.83-2.45,2.29-2.63,3.71-.05,1.82.15,3.62.6,5.41.61,3.07,1.57,6.03,2.88,8.88,2.14,4.4,4.81,8.65,8.21,12.19,5,5.2,11.36,9.07,15.06,15.43,1.7,2.93,2.22,5.89,1.5,9.21-.64,2.93-2.07,5.78-3.33,8.48-3.25,6.95-6.64,14.36-4.02,22.13,1.08,3.2,2.99,6.32,4.99,9.01,1.38,1.77,2.82,3.49,4.32,5.16,5.15,7.31,11.62,13.17,19.41,17.56.4.29,1.59-.38,1.19-.93Z"/>
                  <path class="cls-9" d="M247.19,211.37c-5.34-6.04-10.54-12.15-15.66-18.37-1.78-2.16-3.53-4.3-5.09-6.61-3.29-4.87-5.49-10.4-4.26-16.42.95-4.63,3.65-8.76,5.7-12.94,1.6-3.26,3.37-6.85,3.56-10.57.1-2.04-.06-4.17-.73-6.1s-1.88-3.66-3.15-5.25c-3.02-3.79-7.17-6.69-10.74-9.92-4.99-4.52-8.86-10.32-10.95-16.74-1-3.07-1.68-6.44-1.77-9.64-.06-2.19.65-3.27,2.98-4l-2.9.8,11.07-1.2-3.03.13c3.1.44,6.2.87,9.3,1.31,1.85.36,3.65.9,5.39,1.61.87.34,1.75.64,2.67.84,2.28.51,4.74.26,7.04.05,1.81-.17,3.66-.27,5-1.63,1.15-1.17,1.35-2.76,1.34-4.34-.02-2.11-.79-4.29-1.66-6.19-1.32-2.91-3.16-5.57-5.46-7.81-3.46-3.38-7.45-6.08-11.66-8.43-5.8-3.24-12.06-5.52-17.97-8.53-2.67-1.36-5.26-2.88-7.76-4.54-4-2.65-7.29-5.8-10.63-9.21-.58-.6-2.72-.08-3.44-.02-.2.02-2.46.19-2.19.66,1.47,2.52,2.82,4.81,4.86,6.88,2.61,2.64,5.72,4.78,8.88,6.7,3.39,2.06,6.9,3.91,10.36,5.84.28.16,12.95,7,11.05,5.8,5.69,3.63,11.12,8.08,14.6,13.95.97,1.56,1.62,3.23,1.96,5.02.31.86.49,1.75.54,2.66-.03,1.77-1.43,2.38-3.03,2.61l6.47-.38c-1.47-.15-2.89-.52-4.24-1.11-3.17-1.23-6.44-2.06-9.81-2.49-2.22-.42-4.63-.55-6.89-.51-4.9.1-10.02.29-14.74,1.76-2.51.78-5.08,2.23-5.36,5.15-.31,3.22.83,7.17,1.83,10.18,1.75,5.3,4.62,10.06,8.31,14.21,4.92,5.53,11.78,9.27,15.97,15.47,2.93,4.34,3.62,8.97,1.87,14.03-1.03,2.99-2.53,5.78-3.85,8.65-2.7,5.87-4.54,12.39-2.25,18.73,1.12,3.12,3.08,6.13,5.1,8.73,1.39,1.71,2.84,3.37,4.34,4.98,5.44,6.67,11.76,12.36,18.98,17.07.49.38.15-.69.04-.81Z"/>
                  <path class="cls-9" d="M248.6,208c-5.37-6.65-10.7-13.34-16.09-19.98-1.41-1.73-2.75-3.5-4-5.36-2.77-4.12-4.74-8.57-4.65-13.6.11-2.57.83-4.97,2.16-7.21.67-1.98,1.51-3.88,2.53-5.69,1.24-2.35,2.61-4.79,3.55-7.28,1.67-4.41,2.25-8.81.1-13.2-1.66-3.39-4.43-6.09-7.25-8.54-1.65-1.44-3.36-2.81-5.01-4.25l-2.42-2.18c-2.29-2.08-4.13-4.5-5.52-7.26-1.43-1.81-2.51-3.8-3.23-5.97-.66-1.4-1.14-2.86-1.44-4.38-.69-2.61-1.37-5.31-1.23-8.03.05-1.03.45-2.2,1.22-2.93,2.81-1.59,5.96-1.84,9.44-.77,4.53-.74,8.98-.51,13.35.7l-4.56-1.18,6.43,2.01-2.9-.97c2,.78,4,1.45,6.07,2.04,1.71.49,3.5,1.04,5.3.99,4.55-.11,4.83-4.6,4.02-8.04-2.01-8.52-9.34-14.5-16.53-18.76-5.18-3.08-10.75-5.35-16.19-7.92-2.78-1.27-5.5-2.68-8.14-4.21-5.36-3.12-9.9-7.1-13.63-11.93-.75-.88-2.34-1.31-3.39-1.67.1.03-2.01-.68-1.47.18.89,1.81,2.04,3.41,3.44,4.83,1.31,1.61,2.84,3,4.59,4.15,1.31,1,2.73,1.9,4.12,2.78,7.81,4.95,16.73,8.1,24.22,13.59,2.78,2.04,5.63,4.32,7.85,6.98l4.47,6.28c1,1.73,1.68,3.56,2.04,5.5.26,1.07.88,2.6.66,3.8-.34,1.86-2.63,1.89-4.1,1.69l3.03.77-1.62-.47,2.93.97c-5.49-2.08-11.16-3.9-16.99-4.76-3.82-.56-6.89-.43-10.65.03-2.15.26-6.57.63-8.64,2.35-2.57,2.14-1.43,5.85-.97,8.68,1.49,8.97,6.83,17.13,13.44,23.18,5.76,5.26,13.41,10.2,14.28,18.62.72,7-3.58,12.95-6.23,19.1-1.18,2.75-1.99,5.37-2.26,8.35-.36,3.87.33,7.23,2.04,10.75,1.5,3.08,3.56,5.87,5.74,8.48,3.51,4.09,7.11,8.1,10.81,12.03,3.29,3.25,6.92,6.1,10.91,8.55.52.41.56-.59.36-.84Z"/>
                  <path class="cls-9" d="M245.98,209.07c-4.99-6.29-10.06-12.48-15.16-18.66-2.07-2.5-4.14-5.06-5.88-7.79-2.58-4.05-4.15-8.6-3.55-13.41.99-7.99,7.05-14.14,8.8-21.91.92-4.07.46-8.1-1.71-11.7-1.96-3.27-4.98-5.85-7.84-8.3-1.67-1.43-3.35-2.83-4.98-4.3-1.02-.85-1.95-1.79-2.78-2.82-1.65-1.6-2.97-3.46-3.96-5.56-1.44-1.81-2.52-3.81-3.24-5.99-.66-1.4-1.14-2.86-1.44-4.38-.48-1.47-.78-2.97-.89-4.51-.23-1.15-.34-2.32-.34-3.49l.52-2,2.62-1.55,6.15-.61,15.67,2.19c1.75.64,3.4,1.19,5.24,1.45,3,.42,6.99,1,8.23-2.58.35-1.01.46-2.2.36-3.26-.23-2.45-1.28-5.06-2.46-7.19-2.57-4.64-6.71-8.4-11.02-11.39-5.4-3.75-11.46-6.32-17.4-9.05-2.71-1.19-5.33-2.57-7.84-4.15-2.75-1.18-5.28-2.7-7.59-4.55-3.19-2.37-5.57-5.05-8.09-8.15-.39-.48-3.6-1.14-3.08-.19,1.7,3.13,3.21,5.72,5.95,7.99s5.83,4.14,9,5.87c2.07,1.13,4.22,2.12,6.33,3.18,4.3,2.16,9.06,4.15,13.08,6.69,2.34,1.48,4.6,3.07,6.73,4.84,2.09,1.63,3.84,3.56,5.26,5.79,1.41,1.39,2.44,2.99,3.1,4.82.97,2.17,1.87,4.47,1.97,6.87l-.06,1.17c-.29,1.61-1.27,2.38-2.92,2.31l2.19.17-1.59-.21,2.13.38c-2.86-.82-5.59-1.98-8.48-2.71-2.51-.63-5.07-1.05-7.65-1.28-4.74-.42-6.07-.61-10.84-.13-2.49.25-5.12.44-7.43,1.51-2.18,1.01-3.01,2.81-2.89,5.06.43,8.64,4.41,17.01,10.12,23.38,2.79,3.11,6.05,5.59,9.17,8.34,3.14,2.77,6.41,5.71,8.16,9.63s1.63,7.53.37,11.57c-1.1,3.51-3.02,6.75-4.61,10.05s-3,7-2.96,10.89c.03,3.28.82,6.25,2.31,9.19,1.05,2.08,2.39,4.07,3.79,5.92,6.38,8.43,14.17,15.86,21.54,23.39.32.33,0-.71-.11-.84Z"/>
                </g>
                <g>
                  <path class="cls-9" d="M111.22,263.62c-.1,2.8.77,5.12,3.32,6.6,2.39,1.38,5.24,1.93,7.93,2.31,7.51,1.05,16.1-.24,23.25-1.23,24.8-3.43,48.85-9.96,72.35-18.55,10.59-3.87,21.01-8.13,31.34-12.64,5.08-2.22,10.12-4.54,15.11-6.93,2.85-1.31,5.65-2.73,8.39-4.26,6.8-3.97,13.04-8.56,17.56-15.05,3.97-5.7,6.3-12.63,5.3-19.62-.41-2.86-1.47-6.38-3.17-8.76l-1.98-2.42c-2.3-2.26-5.04-3.77-8.23-4.53-1.01-.42-2.69-.49-3.77-.42-.37.03-1.29-.03-.92.6,1.4,2.16,2.6,4.41,3.62,6.78,1.06,1.12,1.94,2.37,2.62,3.75,1.47,2.63,2.41,5.33,2.7,8.34.91,9.36-5.28,18.5-12.1,24.28-4.54,3.85-10.33,6.96-15.67,9.5-5.95,2.57-11.85,5.25-17.71,8.02-4.1,1.77-8.19,3.54-12.29,5.3-12.27,5.15-24.83,9.62-37.52,13.63-8.47,2.62-17.02,4.97-25.65,7.03-13.68,3.39-27.53,5.52-41.57,6.37l2.63.07-5.42-.49,2.38.42c-2.34-.62-4.65-1.16-6.51-2.84-1.61-1.45-2.47-2.92-3.06-5.14-.2-.77-2.91-.95-2.93-.1Z"/>
                  <path class="cls-9" d="M112.48,261.14c-.08,2.33.41,4.26,2.34,5.83s4.73,2.34,7.12,3.02c2.17.62,4.29.93,6.55.96,1.38.05,2.75,0,4.12-.12,4.73-.48,9.46-.96,14.2-1.45,13.33-1.6,26.7-4.51,39.64-8.02s25.9-7.79,38.45-12.63c12.59-4.86,25.03-10.1,37.24-15.86,4.73-2.23,9.41-4.5,13.87-7.24,6.44-3.95,12-8.63,16.09-15.06,3.82-5.99,5.6-14.03,3.44-20.94-.94-3.01-2.3-5.77-4.5-8.08-2.43-2.56-4.42-3.36-7.65-5.2-.93-.53-2.16-1.03-3.22-1.19-.22-.04-1.32-.25-.96.39,1.21,1.91,2.17,3.95,2.87,6.11,1.39,1.6,2.52,3.37,3.39,5.3,1.28,2.71,2.03,5.6,2.24,8.59.34,4.88-1.65,9.97-4.17,14.05-3.74,6.05-9.27,10.55-15.32,14.19-8.14,4.91-17.1,8.61-25.76,12.44-14.23,6.3-28.68,11.91-43.44,16.87-14.79,4.97-29.78,9.18-45.12,12.09-9.45,1.86-18.97,3.12-28.58,3.78-1.73.02-3.44-.16-5.13-.51l2.17.58c-2.69-.5-4.76-1.88-6.21-4.12-.68-1.03-1.09-2.16-1.23-3.39-.11-.47-2.42-1.1-2.44-.37Z"/>
                  <path class="cls-9" d="M110.99,262.98c-.02,2.83.97,5.07,3.56,6.48,2.19,1.19,4.78,1.82,7.23,2.27,8.24,1.51,16.73.34,24.94-.77,24.87-3.38,48.96-9.9,72.52-18.51,10.6-3.87,21.03-8.13,31.37-12.65,5.08-2.22,10.12-4.53,15.12-6.93,2.85-1.31,5.65-2.74,8.4-4.27,6.79-3.97,13.08-8.55,17.61-15.06,3.97-5.71,6.33-12.67,5.28-19.67-.43-2.89-1.52-6.33-3.24-8.74l-1.96-2.43c-2.36-2.26-5.14-3.79-8.36-4.58-1.24-.52-3.16-.67-4.49-.67-.39,0-1.5-.16-1.11.54,1.35,2.22,2.53,4.54,3.53,6.95,1.38,1.52,2.51,3.22,3.37,5.09,1.25,2.61,1.95,5.4,2.08,8.29.22,4.81-1.8,9.81-4.3,13.81-3.82,6.1-9.28,10.7-15.45,14.36-2.61,1.63-5.32,3.08-8.13,4.35-6.02,2.28-11.91,4.87-17.67,7.77-14.27,6.36-28.77,12.13-43.59,17.08-14.76,4.93-29.76,9.03-45.07,11.88-10.18,1.89-20.62,3.79-31.02,3.18l3.03.34-4.38-.64,4.54.89c-5.07-1.36-8.36-2.97-9.91-8.03-.25-.83-3.9-1.13-3.91-.33Z"/>
                  <path class="cls-9" d="M116.61,264.72c-.15,2.44.06,4.69,1.97,6.46,2.46,2.29,6.22,2.78,9.45,2.96,1.86.1,3.67,0,5.53-.13,9.47-.63,18.94-2.05,28.29-3.67,13.21-2.29,26.4-5.82,39.18-9.83,8.75-2.74,17.43-5.81,25.99-9.11,12.59-4.84,25.02-10.15,37.2-15.94,4.72-2.24,9.4-4.53,13.85-7.28,6.34-3.91,12.1-8.69,15.95-15.17,3.16-5.32,5.11-11.75,4.02-17.96-.54-3.05-1.47-6.24-3.28-8.79l-1.96-2.42c-2-2.01-4.4-3.33-7.2-3.96-.38-.15-3.68-.14-3.03.84,1.51,2.08,2.8,4.3,3.86,6.65,1.05,1.1,1.9,2.33,2.56,3.69,1.39,2.51,2.19,5.03,2.42,7.89.74,9.44-5.38,18.27-12.29,24.14-4.61,3.91-10.28,7.04-15.69,9.67-9.86,4.78-19.95,9.15-30.04,13.43-16.27,6.89-32.93,12.7-49.92,17.5-8.57,2.38-17.22,4.4-25.95,6.05-9.84,1.97-19.79,3.08-29.83,3.31l1.68.1c-5.32-.64-10.9-2.07-11.85-8.32-.07-.46-.86-.72-.9-.13Z"/>
                  <path class="cls-9" d="M114.64,263.2c-.15,2.35.29,4.26,2.18,5.86s4.93,2.33,7.23,2.79c5.89,1.19,11.51.47,17.47-.14,22.7-2.33,44.78-7.58,66.44-14.75s41.96-15.5,61.94-25.38c8.15-4.03,16.21-8.99,21.85-16.26,4.59-5.91,7.74-13.81,6.42-21.39-.46-2.61-1.25-5.06-2.52-7.39-.67-1.42-1.57-2.69-2.7-3.8-2.1-2.07-4.56-3.55-7.39-4.46-.38-.18-4.88-.99-4.34.03,1.34,2.28,2.46,4.66,3.35,7.15,1.36,1.48,2.47,3.14,3.32,4.97,1.2,2.5,1.98,5.4,2.01,8.18.11,11.08-8.57,20.7-17.21,26.34-5.15,3.36-10.68,5.84-16.29,8.27-8.07,3.82-16.23,7.45-24.47,10.89-8.21,3.4-16.51,6.55-24.9,9.46-12.59,4.27-25.33,8.11-38.28,11.15-8.49,2.03-17.06,3.67-25.71,4.91-6.11,1.32-12.26,1.76-18.43,1.3l2.34.28c-3.17-.5-6.22-1.35-8.27-3.99-1.01-1.3-1.43-2.46-1.8-4.07-.12-.5-2.18-.67-2.22.03Z"/>
                  <path class="cls-9" d="M114.33,261.9c.33,2.5,1.26,4.56,3.28,6.16s4.87,2.27,7.44,2.55c1.92.2,3.83.18,5.76.08,9.4-.49,18.89-1.99,28.18-3.58,13.15-2.25,26.29-5.81,39.01-9.8,7.96-2.5,17.91-5.97,25.68-8.99,12.56-4.88,24.95-10.17,37.14-15.91,4.72-2.22,9.37-4.48,13.82-7.22,6.41-3.95,11.9-8.73,15.94-15.1s5.37-13.89,3.33-20.91c-.57-1.95-1.46-4.22-2.64-5.9l-1.96-2.46c-1.45-1.73-3.16-3.16-5.13-4.27-.52-.36-1.23.18-.8.7.95,2.05,2.17,3.93,3.64,5.64,1.66,2.64,2.79,5.5,3.39,8.6.64,3.44.33,6.78-.49,10.14-1.63,6.62-6.22,12.48-11.24,16.9-5.4,4.74-11.9,8.21-18.38,11.2-13.07,6.03-26.12,12.04-39.53,17.29-14.41,5.64-29.06,10.5-44.04,14.38-6.43,1.77-12.92,3.24-19.49,4.41-8.86,1.59-17.76,2.82-26.72,3.68-6.01,1.29-10.86-.33-14.54-4.85-.65-1.05-1.02-2.19-1.11-3.43-.1-.54-.56.46-.53.7Z"/>
                  <path class="cls-9" d="M112.87,263.23c-.14,2.3.23,4.03,1.86,5.77,1.42,1.52,3.95,2.25,5.88,2.75,3.48.9,7.15.78,10.7.56,13.5-.84,26.92-3.28,40.11-6.2,11.09-2.45,22.03-5.77,32.8-9.34,12.84-4.26,25.42-9.11,37.85-14.44,9.06-3.89,18.16-7.79,26.9-12.38,7.87-4.14,15.16-9.14,20.27-16.5,4.31-6.19,6.57-13.62,4.95-21.11-.56-2.6-1.46-5.07-2.96-7.3-.69-.86-1.38-1.71-2.07-2.56-1.9-2.06-4.19-3.53-6.89-4.41-.61-.31-1.6-.52-2.27-.46-.23.02-.98.12-.64.58,1.34,2.48,2.91,4.82,4.69,7,1.13,1.78,2.03,3.68,2.7,5.68.95,2.93,1.23,5.94,1,8.99-.51,6.68-4.53,13.12-8.96,17.86-4.5,4.82-10.16,8.26-15.94,11.31-2.67,1.48-5.43,2.79-8.27,3.93-8.06,3.83-16.2,7.48-24.43,10.95-8.21,3.47-16.51,6.7-24.9,9.7-8.27,3.05-16.69,5.63-25.25,7.76-8.42,2.62-16.98,4.71-25.66,6.25-11.72,2.61-23.59,3.34-35.62,2.18-2.73-1.58-4.1-3.68-4.56-6.7-.08-.54-1.25-.44-1.28.14Z"/>
                  <path class="cls-9" d="M115.03,265.23c-.09,2.48.18,4.45,1.93,6.38,1.99,2.18,5.61,2.9,8.36,3.11,1.78.13,3.39.11,5.16-.01,5.16-.36,10.32-.86,15.45-1.59,9.17-1.31,18.17-2.94,27.21-4.95,15.34-3.4,30.35-8.29,45.08-13.7,12.68-4.67,25.12-9.87,37.42-15.48,3.98-1.82,8.09-3.64,12.01-5.6,8.8-4.4,17.38-9.65,23.09-17.87,3.75-5.4,6.04-11.67,5.53-18.33-.25-3.2-1.09-6.14-2.62-8.96-.66-1.42-1.56-2.68-2.7-3.79-1.96-2.08-4.36-3.42-7.19-4.03-.32-.13-3.2-.15-2.52.79,1.28,1.53,2.32,3.22,3.12,5.05,1.4,1.54,2.54,3.26,3.42,5.14,1.29,2.7,2.11,5.8,2.19,8.8.3,11.46-8.26,21.19-17.16,27.22-5.03,3.29-10.32,6.11-15.88,8.44-4.05,1.86-8.11,3.72-12.16,5.58-16.22,7.3-32.88,13.95-49.88,19.2l-12.77,3.78c-17.14,4.82-34.62,7.92-52.46,9.31-3.34.21-6.45-.38-9.34-1.78-2.73-1.46-4.22-3.65-4.47-6.59-.06-.47-.8-.68-.82-.11Z"/>
                  <path class="cls-9" d="M115.7,261.39c-.14,2.84.88,4.66,3.26,6.25,1.71,1.13,3.72,1.8,5.68,2.34,2.76.76,5.51.8,8.35.67,9.61-.43,19.3-1.94,28.79-3.54,13.22-2.24,26.42-5.76,39.21-9.74,12.87-4,25.65-8.65,38.08-13.84,10.21-4.26,20.48-8.55,30.34-13.56,3.76-1.91,7.5-3.88,10.98-6.27,6.42-4.4,11.86-9.88,15.19-16.99,2.87-6.13,3.34-14.01.33-20.19-.94-1.92-2.07-3.9-3.6-5.42-2.2-2.2-4.55-3.55-7.21-5.27-.42-.27-1.54-.98-2.09-.98-.19,0-.78.08-.55.44,1.11,1.49,1.95,3.12,2.53,4.88,1.08,1.83,2.21,3.64,3.37,5.43,1.32,2.65,2.12,5.42,2.39,8.36.45,4.92-1.55,10.06-4.04,14.19-1.48,2.37-3.18,4.58-5.09,6.63-2.3,2.57-4.97,4.69-8.01,6.36-3.24,2.51-6.72,4.6-10.45,6.29-5.93,2.57-11.8,5.25-17.63,8.04-14.28,6.42-28.79,12.26-43.62,17.29-14.78,5.01-29.79,9.22-45.13,12.13-9.46,1.85-19,3.11-28.62,3.8-2.57.09-5.08-.32-7.53-1.21l1.53.6-1.5-.66,1.26.71c-2.88-1.89-4.23-3.32-4.84-6.75-.12-.66-1.33-.82-1.37.02Z"/>
                  <path class="cls-9" d="M113.72,264.54c-.14,2.5.16,4.55,2.04,6.42,2.06,2.05,5.5,2.64,8.27,2.95,2.05.23,4.1.12,6.16-.02,4.98-.33,9.95-.89,14.9-1.53,24.65-3.22,48.63-9.96,71.93-18.52,10.72-3.94,21.28-8.27,31.74-12.85,7.9-3.46,15.92-7.01,23.48-11.21,7.42-4.12,14.12-9.54,18.65-16.79,3.78-6.04,5.6-14.02,3.42-20.97-.79-2.51-1.85-4.83-3.52-6.88-.34-.53-.75-1-1.21-1.42-1.88-2.04-4.19-3.4-6.93-4.08-.26-.11-3.35-.38-2.66.56,1.24,1.46,2.24,3.08,2.98,4.86,1.4,1.56,2.54,3.29,3.43,5.19,1.34,2.79,2.06,5.77,2.23,8.85.36,6.31-2.71,12.65-6.42,17.52-3.62,4.75-8.24,8.3-13.3,11.4-2.61,1.68-5.32,3.18-8.12,4.51-5.91,2.68-11.81,5.38-17.7,8.11-18.16,8.12-36.72,15.29-55.78,20.95-6.36,1.98-12.78,3.71-19.27,5.19-15.43,3.85-31.16,5.57-47.19,5.17-3.35-1.34-5.59-3.46-6.12-7.24-.07-.48-.97-.75-1.01-.17Z"/>
                  <path class="cls-9" d="M116.17,261.24c.02,2.37.71,4.04,2.52,5.56,1.22,1.02,2.68,1.7,4.17,2.2,1.88.64,3.54.94,5.54,1.06,5.98.34,13.95-.87,19.01-1.57,22.36-3.07,44.31-8.55,65.58-16.09,12.72-4.5,25.28-9.44,37.6-14.94,7.85-3.5,16.01-6.82,23.45-11.16s14.43-9.34,18.68-16.68c3.44-5.94,5.21-12.59,3.72-19.38-.47-2.15-1.16-4.12-2.22-6.07-2.29-4.2-5.79-6.56-9.69-9.19-.68-.46-1.88-.26-.97.59,1.58,1.82,3.06,3.71,4.44,5.69,1.11,1.83,1.99,3.77,2.65,5.8,1.8,5.72,1.18,11.46-1.18,16.89-5.63,12.93-18.73,19.96-30.95,25.53-16.28,7.41-32.51,14.84-49.41,20.78-12.59,4.43-25.33,8.44-38.33,11.5-12.99,3.05-26.14,5.24-39.44,6.57-1.64.05-3.29.06-4.94.03-5.42-.47-8.81-2.63-9.53-7.7-.09-.65-.74.26-.73.57Z"/>
                  <path class="cls-9" d="M113.79,262.8c.35,2.86,1.52,5.09,3.98,6.67s5.38,2.14,8.27,2.23c4.07.14,8.2-.49,12.21-.92,11.24-1.2,22.34-3.05,33.38-5.5,12.99-2.88,26.07-6.89,38.6-11.36,10.62-3.79,21.09-7.93,31.45-12.39,8.11-3.49,16.32-6.97,24.19-10.98,4.65-2.37,9.16-4.91,13.32-8.08,5.23-3.97,10.14-9.08,12.71-15.26,2.29-5.53,3.1-11.44,1.4-17.25-.57-1.96-1.5-4.25-2.66-5.9l-1.96-2.45c-1.45-1.75-3.17-3.17-5.16-4.26-.4-.27-1.18.19-.82.67,1.01,1.04,1.68,2.26,2.03,3.68,1.4,1.58,2.54,3.33,3.42,5.25,2.38,5.09,2.83,10.52,1.36,15.9-4.17,15.24-19.19,23.19-32.39,29.3-20.12,9.32-40.48,18.08-61.62,24.83-16.95,5.41-34.23,9.58-51.87,11.97-5.17.85-10.37,1.38-15.59,1.61-3.09.35-6.04-.15-8.84-1.48-3.01-1.65-4.39-3.84-4.98-7.04-.09-.49-.45.55-.42.75Z"/>
                </g>
              </g>
            </g>
          </g>
        </g>
        <line class="cls-2" x1="195.1" y1="98.97" x2="204.87" y2="113.84"/>
        <line class="cls-2" x1="190.33" y1="145.88" x2="173.68" y2="166.38"/>
      </g>
      <g>
        <path class="cls-3" d="M1818.1,215.37s-22.16-58.55,32.84-83.08"/>
        <path class="cls-3" d="M1810.54,218.16s-30.5-26.55-62.6-32.36"/>
        <path class="cls-3" d="M1811.41,213.45s-35.42-54.82-35.27-81.86"/>
        <path class="cls-3" d="M1800.27,210.21s3.07-2.27,4.07-8.35c0,0,3.85,2.52,11.09,2.36"/>
        <path class="cls-3" d="M1792.57,204.98s5.82-8.29,3.79-17.3c0,0,7.71,6.93,17.38,3.54"/>
        <path class="cls-3" d="M1783.18,199.33s9.81-14.1,6.08-25.6c0,0,15.85,9.4,25.21,4.2"/>
        <path class="cls-3" d="M1769.88,192.7s14.89-17.67,13.07-35.41c0,0,15.49,13.38,34.73,8.25"/>
        <path class="cls-3" d="M1757.89,188.24s17.85-31.85,19.04-48.62c0,0,34.36,12.64,64.01-1.99"/>
        <path class="cls-3" d="M1780.51,152.79s28.94,6.19,40.07-8.97"/>
        <path class="cls-3" d="M1780.7,173.4s6.36,18.83.58,24.88"/>
      </g>
      <g>
        <path class="cls-21" d="M1918.15,162.55c-.52-.31-.97-.58-1.31-.75-4.4-2.22-9.4-4.65-13.03-8.03-5.37-5.01-6.27-15.74-6.52-22.56-.31-8.36,2.39-15.44,6.48-22.58,1.11-1.93,9.73-13.03,12.28-8.3.94,1.74.06,5.87.33,7.95.31,2.47.9,5.24,2.77,7.02,3.12,2.96,9.1,3.35,13.07,4.43.29.08,3.23.62,3.16.51-.82-1.24.53-8.89.53-8.89l7.97,4.34-10.72-9.76-1.62,7.24c-2.37-.89-5.36-1.24-6.28-3.85-.96-2.72-.31-5.88-.03-8.67.5-5.07,2-9.97,2.77-14.99,0,0-10.72-5.83-16.04-5.86-4.56-.02-9.45,3.05-13.28,5.2-3.6,2.02-9.21,3.95-11.13,7.83-.72,1.45-1.08,3.11-2.64,3.8-1.11.49-2.57.09-3.79.61-2.26.96-4.29,3.07-5.89,4.88-3.78,4.26-14.54,15.88-23.63,23.67-5.54,4.74-25.04,5.52-34.99,5.61-.1.86-.24,1.71-.45,2.55,5.72,3.69,14.47,10.52,20.91,15.4,9.48,7.18,19.51,16.37,34.13,12.89,14.62-3.49,19.17,2.21,25.97,3.41,4.31.76,13.82.3,20.23-.15.17-.99.42-1.97.75-2.94Z"/>
        <path class="cls-13" d="M1916.84,161.8c-4.4-2.22-9.4-4.65-13.03-8.03-5.37-5.01-6.27-15.74-6.52-22.56-.31-8.36,2.39-15.44,6.48-22.58,1.11-1.93,9.73-13.03,12.28-8.3.94,1.74.06,5.87.33,7.95.31,2.47.9,5.24,2.77,7.02,3.12,2.96,9.1,3.35,13.07,4.43.29.08,3.23.62,3.16.51-.82-1.24.53-8.89.53-8.89l7.97,4.34-9.45-8.61s0,.07,0,.11c-.12,2.81-1.23,10.77-1.23,10.77,0,0-9.59-1.1-11.33-2.79-1.75-1.69-2.57-14.43-1.54-16.22s2.64-8.7,2.64-8.7l-5.56,6.67s-6.91-1.61-12.32,4.81c-5.41,6.42-11.36,1.96-11.36,1.96,0,0,2.32,4.69,4.04,5.55-1.62-.18-5.27-.46-5.27-.46l4.08,4.74s-3.16,10.78-3.66,16.97c-.5,6.18,1.75,17.03,3.96,22.05,2.21,5.02,5.05,8.37,2.01,8.32-3.04-.05-14.63-2.99-17.52-3.3-2.89-.31-8.09.44-13.25.53-5.16.09-22.42-3.06-24.83-4.79-.92-.66,1.03,1.37,5.18,4.4,6.46,4.03,13.71,6.69,22.7,4.54,14.62-3.49,19.17,2.21,25.97,3.41,4.31.76,13.82.3,20.23-.15.17-.99.42-1.97.75-2.94-.52-.31-.97-.58-1.31-.75Z"/>
        <g>
          <path class="cls-14" d="M1911.98,79.8c-4.56-.02-9.45,3.05-13.28,5.2-3.6,2.02-9.21,3.95-11.13,7.83-.72,1.45-1.08,3.11-2.64,3.8-1.11.49-2.57.09-3.79.61-2.26.96-4.29,3.07-5.89,4.88-3.78,4.26-14.54,15.88-23.63,23.67-5.54,4.74-25.04,5.52-34.99,5.61-.1.86-.24,1.71-.45,2.55,5.72,3.69,14.47,10.52,20.91,15.4.89.68,1.8,1.37,2.7,2.07.07-.19.03-.47-.17-.86-2.91-6.02-13.53-14.2-13.53-14.2,0,0,1.84-.98,5.41-.96,3.57.02,16.54-2.97,18.08-3.87,1.54-.9,12.04-10.68,12.9-11.72.86-1.04,13.4-13.47,14.15-14.32.75-.85,4.89-.5,4.89-.5-.96-.08-2.33-2.1-2.14-2.63.35-1.01,3.27-2.79,4.33-2.49.88.25,4.11,2.63,4.11,2.63,0,0,.66-6.01,1.46-7.84.8-1.84,5.98-5.49,10.8-8.08,4.56-2.45,12.74-6.01,15.43-6.19-1.3-.35-2.51-.56-3.53-.57Z"/>
          <path class="cls-13" d="M1924.19,105.85c-1.03,4,1.83,7.45,1.83,7.45l6.03,1.95s.5-5.65.72-7.54l-1.23,5.46c-2.37-.89-5.36-1.24-6.28-3.85-.72-2.05-.53-4.36-.27-6.56-.34,1.31-.63,2.39-.81,3.09Z"/>
        </g>
        <path class="cls-8" d="M1917.95,163.19c-8.96.45-27.47-1.28-35.14-3.8-9.24-3.03-9.64,2.1-20.75.54-11.11-1.56-19.15-7.99-28.53-16.98-5.8-5.56-12.37-9.42-16.55-11.56-.12,0-.23,0-.35,0-.1.86-.24,1.71-.45,2.55,5.72,3.69,14.47,10.52,20.91,15.4,9.48,7.18,19.51,16.37,34.13,12.89,14.62-3.49,19.17,2.21,25.97,3.41,4.31.76,13.82.3,20.23-.15.13-.77.32-1.54.55-2.3Z"/>
        <path class="cls-20" d="M1924.36,86.52s-4.21-4.22-11.29-3.45c-7.09.76-11.47,4.37-13.26,6.15l-.54,4.03-3.53-2.29.94,4.12s-2.15,2.85-3.01,3.88c-.86,1.04-3.74-3.69-3.74-3.69,0,0-1.04,5.79-.99,6.58.05.8-6.5-.69-6.5-.69l4.02,4.11-8.41,1.28,3.5,2.79s-4.9,2.28-5.54,4.72c-.64,2.44-3.27,6.55-3.27,6.55l-9.33.23s19.23,10.08,26.55,10.22l-7.33-5,1.8-10.2,2.57-3.12,4.69,1.17-7.31-5.49,5.79,1.04-1-3.13,3.97,1.53-5-4.17,4.17-.15-1.27-3.55,6.05,3.24-1.36-3.85,2.95-2.9s3.09,3.06,4.39,1.25c0,0-1.45-7.23-.62-7.77.83-.55,10.29-4.54,12.56-4.5,2.28.04,5.74-1.54,9.36,1.06Z"/>
        <g>
          <path class="cls-22" d="M1858.22,118.61s19.62,15.59,40.31,14.58l2.04,14.47s-35.79-2.77-53.09-20.17l10.74-8.87Z"/>
          <path class="cls-15" d="M1892.54,133.04l-1.82.25,3.17,2.47.58,8.51c-25.33-.83-42.3-14.58-42.3-14.58,0,0,5.84-5.7,6.95-6.72,1.1-1.02,3.82-.86,3.82-.86l-.04-.23c-2.95-1.89-4.67-3.26-4.67-3.26l-10.74,8.87c17.3,17.4,53.09,20.17,53.09,20.17l-2.04-14.47c-2.01.1-4.01.04-5.99-.15Z"/>
          <path class="cls-12" d="M1887.27,143.91l2.23-6.07c1.07-2.92-.42-6.15-3.34-7.22l-15.84-5.82c-2.92-1.07-6.15.42-7.22,3.34l-2.23,6.07c-1.07,2.92.42,6.15,3.34,7.22l15.84,5.82c2.92,1.07,6.15-.42,7.22-3.34ZM1879.32,143.79l-12.04-4.43c-2.22-.81-3.8-2.5-2.98-4.72l1.7-4.62c.81-2.22,2.83-2.59,5.05-1.77l12.04,4.42c2.22.82,3.8,2.51,2.98,4.72l-1.7,4.62c-.81,2.22-2.83,2.59-5.05,1.77Z"/>
          <path class="cls-10" d="M1886.49,140.61c-.36,1.01-1.31,1.59-2.12,1.3l-6.94-2.51c-.81-.29-1.16-1.34-.8-2.35h0c.36-1.01,1.31-1.59,2.12-1.3l6.94,2.51c.81.29,1.16,1.34.8,2.35h0Z"/>
          <path class="cls-4" d="M1887.39,142.96l2.23-6.07c1.07-2.92-.42-6.15-3.34-7.22l-15.84-5.82c-2.92-1.07-6.15.42-7.22,3.34l-2.23,6.07c-1.07,2.92.42,6.15,3.34,7.22l15.84,5.82c2.92,1.07,6.15-.42,7.22-3.34ZM1879.45,142.84l-12.04-4.42c-2.22-.81-3.8-2.51-2.98-4.72l1.7-4.61c.81-2.22,2.83-2.59,5.05-1.77l12.04,4.42c2.22.82,3.8,2.51,2.98,4.72l-1.7,4.62c-.81,2.22-2.83,2.59-5.05,1.77Z"/>
          <path class="cls-19" d="M1887.39,142.96l2.23-6.07c1.07-2.92-.42-6.15-3.34-7.22l-15.84-5.82c-2.92-1.07-6.15.42-7.22,3.34l-2.23,6.07c-1.07,2.92.42,6.15,3.34,7.22l15.84,5.82c2.92,1.07,6.15-.42,7.22-3.34ZM1879.45,142.84l-12.04-4.42c-2.22-.81-3.8-2.51-2.98-4.72l1.7-4.61c.81-2.22,2.83-2.59,5.05-1.77l12.04,4.42c2.22.82,3.8,2.51,2.98,4.72l-1.7,4.62c-.81,2.22-2.83,2.59-5.05,1.77Z"/>
          <path class="cls-18" d="M1864.33,140.48l15.84,5.82c2.92,1.07,6.15-.42,7.22-3.34l2.23-6.07c.09-.24.15-.48.21-.72.04-2.33-1.37-4.53-3.68-5.38l-15.84-5.82c-2.92-1.07-6.15.42-7.22,3.34l-2.23,6.07c-.09.24-.15.48-.21.72-.04,2.33,1.37,4.53,3.68,5.38ZM1864.42,133.69l1.7-4.61c.81-2.22,2.83-2.59,5.05-1.77l12.04,4.42c2.14.79,3.66,2.39,3.04,4.48.03.43-.02.88-.19,1.35l-1.7,4.62c-.81,2.22-2.83,2.59-5.05,1.77l-12.04-4.43c-2.13-.78-3.66-2.39-3.04-4.48-.03-.43.02-.88.19-1.36Z"/>
          <path class="cls-10" d="M1885.64,138.06h-.04s-1.11,3.01-1.11,3.01c-.08.22-.18.41-.29.6l.11.04c.81.29,1.75-.29,2.12-1.3.36-1.01,0-2.06-.8-2.35Z"/>
          <path class="cls-18" d="M1886.61,139.66c-.36,1.01-1.31,1.59-2.12,1.3l-6.94-2.51c-.81-.29-1.16-1.34-.8-2.35h0c.36-1.01,1.31-1.59,2.12-1.3l6.94,2.51c.8.29,1.16,1.34.8,2.35h0Z"/>
          <path class="cls-19" d="M1885.81,137.31l-6.94-2.51c-.55-.2-1.17.02-1.62.49-.02.74.33,1.38.94,1.6l6.94,2.51c.55.2,1.17-.02,1.62-.49.02-.74-.33-1.38-.94-1.6Z"/>
        </g>
        <path class="cls-20" d="M1877.43,146.57s3.97,8.17,5.89,9.28,6.49,2.47,6.49,2.47c0,0-12.07-2.11-14.13-2.53-2.06-.42-14.6.51-18.06-1.48l18.17-.5,1.62-7.24Z"/>
      </g>
      <g>
        <path class="cls-5" d="M976.06,70.47s-1.19-8.21-4.61-13.8c0,0,7.37,8.2,11.22,7.67,3.85-.53,9.37-4.55,8.85-6.29s-3.09-12.55-3.09-12.55c0,0,9.47,12.95,12.14,12.61,1.13-.14,6.19-6.65,11-15.53,11.02-20.35,29.46-35.88,51.77-42.03.64-.18,1.27-.36,1.9-.55,0,0-12.45,13.73-14.68,24.96-2.23,11.22,4.24,19.12,4.24,19.12,0,0-16.38.25-20.02,6.79-8.12,14.62,3.37,25.02,3.37,25.02l-28.25-7.68s2.57,10.39-9.01,17.55c-8.65,5.35-19.4.43-19.4.43l-12.29,18.19s-12.49-22.53-32.31-8.7c0,0,.49-21.75-20.87-17.61,0,0,4.65-8.11-1.43-12.9-8.47-6.68-24.26-5.96-24.26-5.96,0,0,1.28-.58,3.44-1.54,17.88-7.94,38.82-6.29,54.67,5.19,6.87,4.98,16,8.64,27.63,7.62Z"/>
        <g>
          <path class="cls-6" d="M1025.41,72.42l12.32,3.35c-7.88-7.53-14.83-16.03-20.95-25.03,1.36,7.93,4.18,15.32,8.62,21.68Z"/>
          <path class="cls-6" d="M970.63,78.96c-.67,7.26-1.66,14.38-4.79,20.78,2.18,2.52,3.35,4.63,3.35,4.63l9.23-13.65c-2.76-2.67-6.07-8.74-7.78-11.76Z"/>
          <path class="cls-6" d="M949.46,86.62c-.36-3.7-.71-7.43-.6-11.14-2.43,3.9-5.44,7.35-7.35,11.66-1.07,2.4-1.96,4.86-2.79,7.35,4.21-2.52,8.06-3.42,11.51-3.29-.26-1.62-.64-3.25-.77-4.57Z"/>
          <path class="cls-6" d="M916.01,78.06c1.84-.36,3.5-.51,5.03-.51,1.31-2.27,2.29-4.71,2.77-7.25,1.41-7.56-3.51-12.02-10.61-13.2-.67-.11-.67-1.1.01-1.2,4.05-.55,8.32.32,12.38.5,2.49.11,6.21.29,9.1-.66-13.16-4.54-27.86-3.88-40.93,1.92-2.16.96-3.44,1.54-3.44,1.54,0,0,15.8-.72,24.26,5.96,6.08,4.8,1.43,12.9,1.43,12.9Z"/>
          <path class="cls-6" d="M999.19,80.6c-2.14-1.18-3.57-3.27-3.94-5.69-.44-2.86,1.03-5.3,2.08-7.85-2.94,2.58-7.5,3.55-11.18,3.8-3.23.22-7.12.96-10.1-.39,1.17,7.08.64,15,9.47,17.03,3.92.95,10.03,1.55,15.35-1.74,1.95-1.21,3.49-2.5,4.71-3.83-2.26.1-4.48-.27-6.4-1.33Z"/>
          <path class="cls-6" d="M1052.84,40.95c-6.52-4.07-12.28-9.34-18.02-14.52,1.41,6.97,5.74,13.43,11.3,18.59,4.56-.88,8.67-.95,8.67-.95,0,0-.92-1.13-1.95-3.13Z"/>
        </g>
      </g>
      <g>
        <path class="cls-3" d="M744.43,480.81s36.59-36.66,68.11-11.86"/>
        <path class="cls-3" d="M740.51,477.17s16.52-47.12,1.33-62.11"/>
        <path class="cls-3" d="M744.12,475.88s30.56-43.48,50.07-53.93"/>
        <path class="cls-3" d="M743.65,467.66s2.41,1.03,7.04-.72c0,0-.84,3.38,1.1,7.84"/>
        <path class="cls-3" d="M745.48,460.82s7.43.4,13.41-4.38c0,0-3.05,7.52,1.83,12.23"/>
        <path class="cls-3" d="M747.19,452.75s12.63.63,19.97-6.18c0,0-2.78,13.56,3.32,17.38"/>
        <path class="cls-3" d="M748.61,441.86s16.48,2.41,28.79-5.64c0,0-5.74,14.89,2.8,24.9"/>
        <path class="cls-3" d="M748.81,432.63s27.44-1.26,39.81-7.06c0,0-.45,26.39,17.55,39.2"/>
        <path class="cls-3" d="M780.03,432.95s2.83,20.48,16.55,21.53"/>
        <path class="cls-3" d="M765.23,441.1s-11.96,11.31-17.77,10.06"/>
      </g>
      <g>
        <path class="cls-3" d="M1277.72,394.5s40.39-55.78,88.12-28.63"/>
        <path class="cls-3" d="M1271.66,390.39s8.51-41.37-1.8-70.4"/>
        <path class="cls-3" d="M1276.17,387.99s30.78-63.75,54.41-81.36"/>
        <path class="cls-3" d="M1273.66,377.11s3.45.92,9.22-2.28c0,0-.35,4.67,3.26,10.26"/>
        <path class="cls-3" d="M1274.53,367.63s10.01-.86,16.89-8.36c0,0-2.34,10.6,5.24,15.97"/>
        <path class="cls-3" d="M1274.96,356.54s16.99-1.53,25.22-12c0,0-.59,18.62,8.42,22.57"/>
        <path class="cls-3" d="M1274.36,341.75s22.53.12,37.11-12.93c0,0-4.24,20.95,9.45,32.7"/>
        <path class="cls-3" d="M1272.5,329.4s36.31-6.84,51.48-16.9c0,0,5.46,35.29,32.41,49"/>
        <path class="cls-3" d="M1314.22,323.95s8.47,26.8,27.02,25.62"/>
        <path class="cls-3" d="M1296.36,337.61s-13.36,17.34-21.4,16.76"/>
      </g>
      <g>
        <path class="cls-3" d="M594.83,240.88s-26.85-75.38,18-100.8"/>
        <path class="cls-3" d="M588.59,243.65s-48.99-55.45-74.27-45.33"/>
        <path class="cls-3" d="M588.75,237.85s-37.94-71.97-41.28-105.79"/>
        <path class="cls-3" d="M578.61,232.73s2.39-2.55,2.48-10.06c0,0,3.68,3.52,9.98,4.01"/>
        <path class="cls-3" d="M571.23,225.44s4.01-9.81,1.08-21.29c0,0,7.62,9.41,15.62,6.09"/>
        <path class="cls-3" d="M562.31,217.47s6.75-16.71,2.02-31.45c0,0,15.04,13.27,22.54,7.67"/>
        <path class="cls-3" d="M549.85,207.9s10.72-20.69,6.86-43.05c0,0,15.24,18.23,31.36,13.64"/>
        <path class="cls-3" d="M538.82,201.17s11.49-38.14,10.37-59.01c0,0,31.6,19.1,55.59,3.63"/>
        <path class="cls-3" d="M554.01,158.99s26.04,10.51,33.81-7.39"/>
        <path class="cls-3" d="M556.82,184.8s7.96,24.17,3.7,31.18"/>
      </g>
    </g>
  </g>
</svg>